<svg xmlns="http://www.w3.org/2000/svg" xmlns:xlink="http://www.w3.org/1999/xlink" width="1007.5" height="575.5" viewBox="206 133.4 1007.5 575.5"><path d="M224.1 156.1h10.1v24.7H250v8.1h-25.9v-32.8zm50.6 0h10.1v19.6c0 1.9-.3 3.8-.9 5.5-.6 1.7-1.5 3.2-2.8 4.5-1.3 1.3-2.6 2.2-4.1 2.7-2 .7-4.3 1.1-7.1 1.1-1.6 0-3.3-.1-5.2-.3-1.9-.2-3.5-.7-4.7-1.3-1.3-.7-2.4-1.6-3.5-2.8-1-1.2-1.8-2.5-2.2-3.8-.6-2.1-.9-3.9-.9-5.6v-19.6h10.1v20c0 1.8.5 3.2 1.5 4.2s2.4 1.5 4.1 1.5c1.7 0 3.1-.5 4.1-1.5 1-1 1.5-2.4 1.5-4.2v-20zm49.8 0h10.1v11.5h11v-11.5h10.2v32.8h-10.2v-13.3h-11v13.3h-10.1v-32.8zm-34.8 21.4h9.6c.2 1.6.6 2.8 1.3 3.6 1 1.3 2.5 2 4.5 2 1.4 0 2.6-.3 3.3-1 .8-.7 1.2-1.5 1.2-2.4 0-.9-.4-1.6-1.1-2.3-.7-.7-2.5-1.3-5.2-1.9-4.4-1-7.6-2.3-9.5-4-1.9-1.7-2.9-3.8-2.9-6.3 0-1.7.5-3.3 1.5-4.8s2.4-2.7 4.4-3.5c2-.9 4.6-1.3 8-1.3 4.2 0 7.4.8 9.6 2.3s3.6 4.6 4 8h-9.6c-.3-1.5-.8-2.6-1.6-3.2-.8-.7-1.9-1-3.4-1-1.2 0-2.1.2-2.7.8-.6.5-.9 1.1-.9 1.8 0 .5.2 1 .7 1.4.5.4 1.6.8 3.4 1.2 4.4 1 7.6 1.9 9.5 2.9 1.9 1 3.3 2.2 4.2 3.6.9 1.4 1.3 3.1 1.3 4.9 0 2.1-.6 4-1.7 5.8-1.2 1.8-2.8 3.1-4.9 4s-4.7 1.4-7.9 1.4c-5.6 0-9.4-1.1-11.6-3.2-2-2.2-3.2-5.5-3.5-8.8zm78.6-15.2h6.8v16.6h10.6v5.4h-17.4v-22zm34 0h6.8v13.2c0 1.3-.2 2.5-.6 3.7-.4 1.2-1 2.2-1.9 3-.9.9-1.8 1.5-2.7 1.8-1.3.5-2.9.7-4.8.7-1.1 0-2.2-.1-3.5-.2-1.3-.2-2.3-.4-3.2-.9-.9-.4-1.6-1.1-2.3-1.9-.7-.8-1.2-1.7-1.4-2.5-.4-1.4-.6-2.7-.6-3.7v-13.2h6.8v13.5c0 1.2.3 2.1 1 2.8.7.7 1.6 1 2.8 1 1.2 0 2.1-.3 2.8-1 .7-.7 1-1.6 1-2.8v-13.5zm33.5 0h6.8v7.7h7.4v-7.7h6.8v22.1H450v-8.9h-7.4v8.9h-6.8v-22.1zm-23.4 14.3h6.5c.1 1.1.4 1.9.9 2.4.7.9 1.7 1.3 3 1.3 1 0 1.7-.2 2.2-.7.5-.5.8-1 .8-1.6 0-.6-.2-1.1-.8-1.5-.5-.5-1.7-.9-3.5-1.3-3-.7-5.1-1.6-6.4-2.7-1.3-1.1-1.9-2.5-1.9-4.3 0-1.1.3-2.2 1-3.2s1.6-1.8 3-2.4c1.3-.6 3.1-.9 5.4-.9 2.8 0 5 .5 6.4 1.6 1.5 1.1 2.4 3.1 2.7 5.4h-6.5c-.2-1-.5-1.7-1.1-2.2-.5-.5-1.3-.7-2.3-.7-.8 0-1.4.2-1.8.5-.4.3-.6.7-.6 1.2 0 .4.2.7.5.9.3.3 1.1.6 2.3.8 3 .6 5.1 1.3 6.4 2 1.3.7 2.2 1.5 2.8 2.4.6 1 .9 2.1.9 3.3 0 1.4-.4 2.7-1.2 3.9-.8 1.2-1.9 2.1-3.3 2.7s-3.2.9-5.3.9c-3.7 0-6.3-.7-7.8-2.2-1.3-1.1-2.1-3.3-2.3-5.6zm51.6.7v-4.6h.9v1.8h1.8v-1.8h.9v4.6h-.9v-2H465v2h-1zm8.8 0h-1l-.4-1h-1.8l-.4 1h-1l1.8-4.6h1l1.8 4.6zm-1.7-1.8l-.6-1.7-.6 1.7h1.2zm2.2 1.8v-4.6h.9l1.9 3.1v-3.1h.9v4.6h-1l-1.9-3v3h-.8zm4.7-4.6h1.7c.4 0 .7 0 .9.1.3.1.5.2.7.4.2.2.3.5.4.7.1.3.1.7.1 1.1 0 .4 0 .7-.1 1-.1.3-.3.6-.5.8-.2.2-.4.3-.7.4-.2.1-.5.1-.8.1H478v-4.6zm.9.7v3.1h1.3c.2 0 .3-.1.4-.2.1-.1.2-.2.2-.4.1-.2.1-.5.1-.8s0-.6-.1-.8c-.1-.2-.1-.3-.3-.4-.1-.1-.3-.2-.4-.2h-.8l-.4-.3zm3.7 3.9v-4.6h1.4l.8 3.1.8-3.1h1.4v4.6h-.9v-3.6l-.9 3.6h-.9l-.9-3.6v3.6h-.8zm9.5 0h-1l-.4-1h-1.8l-.4 1h-1l1.8-4.6h1l1.8 4.6zm-1.7-1.8l-.6-1.7-.6 1.7h1.2zm2.2-2.8h1.7c.4 0 .7 0 .9.1.3.1.5.2.7.4s.3.5.4.7c.1.3.1.7.1 1.1 0 .4 0 .7-.1 1-.1.3-.3.6-.5.8-.2.2-.4.3-.7.4-.2.1-.5.1-.8.1h-1.7v-4.6zm.9.7v3.1h1.3c.1 0 .3-.1.4-.2.1-.1.2-.2.2-.4.1-.2.1-.5.1-.8s0-.6-.1-.8c-.1-.2-.2-.3-.3-.4-.1-.1-.3-.2-.4-.2h-.8l-.4-.3zm3.7 3.9v-4.6h3.4v.8h-2.5v1h2.3v.8h-2.3v1.3h2.6v.8l-3.5-.1zm-30.3 5.2l.9.3c-.1.5-.4.9-.7 1.1-.3.2-.7.4-1.2.4-.6 0-1.1-.2-1.5-.6-.4-.4-.6-1-.6-1.7 0-.8.2-1.3.6-1.7.4-.4.9-.6 1.5-.6.5 0 1 .2 1.3.5.2.2.4.5.5.8l-.9.2-.3-.6c-.2-.1-.4-.2-.6-.2-.3 0-.6.1-.8.4-.2.2-.3.6-.3 1.2s.1 1 .3 1.2c.2.2.5.4.8.4.2 0 .4-.1.6-.2.2-.3.4-.6.4-.9zm1.5-.6c0-.5.1-.8.2-1.2.1-.2.2-.4.4-.6.2-.2.4-.3.6-.4.3-.1.6-.2 1-.2.7 0 1.2.2 1.6.6.4.4.6 1 .6 1.7s-.2 1.3-.6 1.7-.9.6-1.6.6c-.7 0-1.2-.2-1.6-.6-.4-.3-.6-.8-.6-1.6zm1 0c0 .5.1.9.4 1.2.2.3.5.4.9.4s.7-.1.9-.4c.2-.3.3-.7.3-1.2s-.1-.9-.3-1.2c-.2-.3-.5-.4-.9-.4s-.7.1-.9.4c-.3.3-.4.7-.4 1.2zm8.3 2.3v-4.5h1.4l.8 3.1.8-3.1h1.4v4.5h-.8v-3.5l-.9 3.5h-.9l-.9-3.5v3.5h-.9zm5.2 0v-4.5h3.3v.8h-2.4v1h2.3v.8h-2.3v1.2h2.5v.8h-3.4zm5.2 0v-3.7h-1.3v-.8h3.6v.8H489v3.7h-.9zm2.8 0v-4.5h.9v4.5h-.9zm4.6-1.7l.9.3c-.1.5-.4.9-.7 1.1-.3.2-.7.4-1.2.4-.6 0-1.1-.2-1.5-.6-.4-.4-.6-1-.6-1.7 0-.8.2-1.3.6-1.7.4-.4.9-.6 1.5-.6.5 0 1 .2 1.3.5.2.2.4.5.5.8l-.9.2-.3-.6c-.2-.1-.4-.2-.6-.2-.3 0-.6.1-.8.4s-.3.6-.3 1.2.1 1 .3 1.2c.2.2.5.4.8.4.2 0 .4-.1.6-.2.2-.3.4-.6.4-.9zm-22.2.1h.9c.1.3.2.5.3.7.2.1.4.2.7.2.3 0 .5-.1.7-.2.1-.1.2-.3.2-.4 0-.1 0-.2-.1-.3-.1-.1-.2-.1-.3-.2-.1 0-.3-.1-.7-.2-.5-.1-.8-.3-1-.4-.3-.2-.4-.6-.4-.9 0-.2.1-.4.2-.6.1-.2.3-.4.6-.5.2-.1.5-.2.9-.2.6 0 1 .1 1.3.4.3.2.4.6.5 1h-.9c0-.2-.1-.4-.2-.5-.1-.1-.3-.2-.6-.2s-.5.1-.6.2c-.1.1-.1.2-.1.3 0 .1 0 .2.1.3.1.1.4.2.8.3.4.1.8.2 1 .3.2.1.4.3.5.5.1.2.2.4.2.7 0 .3-.1.5-.2.7-.1.2-.3.4-.6.5-.3.1-.6.2-1 .2-.6 0-1-.1-1.3-.4-.7-.3-.9-.8-.9-1.3zm23.7 0h.9c.1.3.2.5.3.7.2.1.4.2.7.2.3 0 .5-.1.7-.2.1-.1.2-.3.2-.4 0-.1 0-.2-.1-.3-.1-.1-.2-.1-.3-.2-.1 0-.3-.1-.7-.2-.5-.1-.8-.3-1-.4-.3-.2-.4-.6-.4-.9 0-.2.1-.4.2-.6.1-.2.3-.4.6-.5.2-.1.5-.2.9-.2.6 0 1 .1 1.3.4.3.2.4.6.5 1h-.9c0-.2-.1-.4-.2-.5-.1-.1-.3-.2-.6-.2s-.5.1-.6.2c-.1.1-.1.2-.1.3 0 .1 0 .2.1.3.1.1.4.2.8.3.4.1.8.2 1 .3.2.1.4.3.5.5.1.2.2.4.2.7 0 .3-.1.5-.2.7-.1.2-.3.4-.6.5-.3.1-.6.2-1 .2-.6 0-1-.1-1.3-.4-.7-.3-.9-.8-.9-1.3zm-19.5-13.5v-.9c0-.7-.3-1.5-.9-1.8.2-.1.4-.2.5-.4.4-.4.5-.9.5-1.5 0-.5-.1-.9-.4-1.3-.2-.4-.5-.6-.9-.8-.4-.1-1-.2-1.9-.2H471v8.1h1.6V167h1.8c.9 0 1.2.4 1.3 1.2 0 .2 0 .4.1.6v.3c0 .5.1.9.2 1.3h1.8c-.2-.3-.3-.9-.3-1.3zm-3.7-3.4h-1.2v-2.1h2.5c.3 0 .5.2.6.3.1.2.2.4.2.7 0 .2-.1.4-.2.6-.1.2-.3.3-.5.3-.1.1-.6.2-1.4.2zm-9.8 4.7v-8.1h5.5v1.4h-3.9v1.9h3.4v1.4h-3.4v3.4H464zm15.1 0v-8.1h6v1.4h-4.4v1.8h4.1v1.4h-4.1v2.2h4.5v1.4c0-.1-6.1-.1-6.1-.1zm7.1-2.8h1.6c.1.5.3.9.6 1.2.3.2.7.4 1.2.4s.9-.1 1.2-.3c.3-.2.4-.5.4-.8 0-.2-.1-.4-.2-.5-.1-.1-.3-.3-.6-.4-.2-.1-.6-.2-1.3-.4-.9-.2-1.5-.5-1.8-.8-.5-.4-.7-1-.7-1.6 0-.4.1-.8.4-1.2s.6-.6 1-.8c.4-.2 1-.3 1.6-.3 1 0 1.8.2 2.3.7.5.4.8 1.1.8 1.9h-1.6c-.1-.4-.2-.7-.4-.9-.2-.2-.6-.3-1-.3-.5 0-.8.1-1.1.3-.2.1-.3.3-.3.5s.1.4.2.5c.2.2.7.4 1.5.5.8.2 1.4.4 1.8.6s.7.5.9.8c.2.3.3.8.3 1.3s-.1.9-.4 1.3c-.3.4-.6.7-1.1.9-.5.2-1.1.3-1.8.3-1 0-1.8-.2-2.4-.7-.6-.5-1-1.3-1.1-2.2zm8 2.8v-8.1h1.6v3.2h3.2v-3.2h1.6v8.1H499v-3.5h-3.2v3.5h-1.6zm-98.7 158.4c.2-4.7 3.2-8.8 3.2-13.5 0-1.6-1.7-2.7-2.9-1.5-1.3 1.4-.4 5-.1 6.7.6 2.9 3.2 4.3 5.9 3.7 7-1.4 5.8-12.9.4-15.4-2.6-1.2-6.6-1.4-8.9.6-3.7 3.3-3.9 6.6-1.2 10.7.8 1.2 2.7.1 1.9-1.1-1.7-2.6-2.2-4.6 0-7.2 2-2.2 5.4-1.8 7.8-.7 2.6 1.2 2.7 4.8 2.3 7.2-.5 2.8-5 6-6.1 1.6-.2-.9-.3-2-.4-2.9-.2-2.6-1-.6-1.4 1-.9 3.7-2.6 7-2.8 10.9 0 1.3 2.2 1.3 2.3-.1zm-69.9-.4c0-3 .1-6 .1-9 .1-2.5-.8-8.8 3.6-7.6 1.4.4 2-1.8.6-2.2-3-.8-5.2.1-6.1 3.1-.5 1.7-.3 3.6-.3 5.3-.1 3.4-.1 6.9-.1 10.3-.1 1.6 2.2 1.6 2.2.1z"/><path d="M322 318.8c2.7-.7 5.5-.1 8.2 0 1.5 0 1.5-2.2 0-2.3-3 0-5.9-.7-8.8.1-1.4.4-.8 2.6.6 2.2zm-80.5 4.6c3.3 1.6 8.4 2.3 10.8-1 .3-.4.1-1-.3-1.3-3.2-1.9-5.2-4.3-5.6-8.1-.1-1 7.6 4 7.8 4.2.4.4 1.2.4 1.5-.2.5-1.3 1-2.6 1.7-3.8 1.7-3.3 4.6 1.1 5.5 2.3 1 1.3 1.4 1.9 3 2.5v-1.8c-.7.3-1.5.5-2.2.6-.3.1-.6.4-.7.7-1.5 5.2-4.1 8.2-9.8 8.7-4.5.4-8.2-1.2-11.1-4.3-.3.5-.6 1-.9 1.6.1 0 .2 0 .2.1 1.2.3 1.7-1.5.5-1.8-.1 0-.2 0-.2-.1-.9-.2-1.6.9-.9 1.6 3.7 3.9 8.7 5.8 14.3 4.7 2.7-.5 4.7-1.3 6.7-3.3 2-2 1.9-5.5 4.7-6.5.9-.3.9-1.5 0-1.8-2.8-.9-3.4-5.1-6.6-6-3.4-.9-4.7 3.6-5.7 5.9.5-.1 1-.1 1.5-.2-2.6-2.5-6.3-5.1-10-5.2-.5 0-.9.4-.9.9-.1 3.3.9 5.8 2.9 8.4.4.6 3.4 1.9 1.8 2.6-2 .8-5 .1-6.8-.8-1.3-.7-2.3.9-1.2 1.4zm312-13.4c-8.1-.7-15.9 0-24 0-.5 0-.9.4-.9.9v15.5c0 .5.4.9.9.9h23.8c.5 0 .9-.4.9-.9v-15.5c0-1.2-1.9-1.2-1.9 0v15.2c0-.1 1.6-.6-.1-.6h-20.7c-2.3 0-1.1-.4-1.1.9v-15.3c0 1.2-1.4.9.8.9h3.5c6.4 0 12.4-.5 18.8 0 1.2 0 1.2-1.9 0-2z"/><path d="M528.8 311.6c3.8 3.6 7.7 5.3 12.4 7.6 2.3 1.1 10.9-6.2 12.7-7.5 1-.7 0-2.3-.9-1.6-2 1.4-4.1 2.8-6.1 4.2-.7.5-1.4.8-2.1 1.2-.8.5-1.6.9-2.4 1.4-1 .6-1.2.3-.4.6-4.5-2.2-8.3-3.9-12-7.3-.7-.8-2.1.6-1.2 1.4zm-57.4 8.4c-2.2 0-5.5.2-7.2 2-1.9 2-1.1 4.9 1.4 6 2.3 1 6.9 1.4 8.6-1 2.6-3.7.4-5.2-2.4-7.7-.6-.5 1.7-3 2-3.8.4-1.2.3-3-.3-4.1-1.1-2-3.8-3.5-6.1-2.4-5.6 2.7-2.1 11.1 3.9 9 1.1-.4.7-2.2-.5-1.8-1.5.5-3 .4-4-1-2.4-3.4 3.7-7 5.2-2.5.9 2.8-3.2 4.1-2.4 6.3.3 1 .9 1.5 1.6 2.2.7.6 1.4 1.2 2 1.8 2 1.9-2.1 3.8-3.6 3.8-1.3 0-4-.4-4.5-1.9-.6-1.7 1.9-2.3 2.9-2.6 1.1-.3 2.3-.4 3.4-.4 1.2 0 1.2-1.9 0-1.9zm7.6-5.2v6.5c0 1.2 1.9 1.2 1.9 0v-6.5c0-1.2-1.9-1.2-1.9 0z"/><path d="M482.9 317.4h-5.8c-1.2 0-1.2 1.9 0 1.9h5.8c1.2 0 1.2-1.9 0-1.9zm-7.8-8.9h-5.8c-1.2 0-1.2 1.9 0 1.9h5.8c1.2 0 1.2-1.9 0-1.9zm352.6-126.9c1.7-2.2 4-3.9 5.9-6 .3-.3.3-.8 0-1.1-1.1-1.2-2.2-2.3-3.4-3.5-.8-.8-1.6-2-2.6-2.5-.9-.4-1.6.9-.8 1.3 1 .5 1.9 1.9 2.7 2.6 1 1 2 2.1 3 3.1v-1.1c-1.9 2.2-4.3 3.9-6.1 6.3-.6.9.7 1.6 1.3.9z"/><path d="M889.4 165.3l15.6-.2 8.3.2m-23.9 8l9.5.2 14.4-.2m-23.9 8l5.3.1 18.6-.1" fill="none" stroke="#000" stroke-width="2.2" stroke-linecap="round" stroke-miterlimit="10"/><path d="M752.3 174c1.4 1 2.4 2.5 3.7 3.6.3.3.8.3 1.1 0 .7-.7 1.5-1.4 2.2-2.1.5-.5 1.3-1.1 1.6-1.7.4-.9-.9-1.6-1.3-.8-.3.6-1.1 1.2-1.6 1.6-.6.6-1.3 1.2-1.9 1.9h1.1c-1.4-1.2-2.5-2.7-4-3.9-.9-.5-1.6.8-.9 1.4zm214.8-6.5l11 11c.7.7 1.7-.4 1.1-1.1l-11-11c-.7-.6-1.8.4-1.1 1.1z"/><path d="M968.2 178.5l11-11c.7-.7-.4-1.7-1.1-1.1l-11 11c-.7.8.4 1.8 1.1 1.1z"/><path fill="none" stroke="#000" stroke-width="1.2" d="M1037.3 168.6c.1-4.6 3.1-7.1 7.6-7.1 3.6 0 7.2 1.9 7.2 5.9 0 2.8-1.4 3.8-3.6 5.2-1.5 1-1.9 1.4-1.9 3.2h-4.6v-1.4c0-2.3 1.3-3.2 2.3-4 1.2-.8 2.3-1.4 2.3-2.9 0-1.1-.8-1.8-1.9-1.8-1.6 0-2.4 1-2.5 2.5v.5s0 .6-.6.6h-3.9c-.4-.1-.4-.7-.4-.7zm4.7 11.1c0-.6.5-1 1-1h2.8c.5 0 1 .4 1 1v2.8c0 .6-.5 1-1 1h-2.8c-.5 0-1-.4-1-1v-2.8z"/><path d="M247 611.4l1.9-11.3h3.1l-1.9 11.3zm14.3-11c-.6-.2-1.6-.5-2.8-.5-3 0-5.2 1.5-5.2 3.7 0 1.6 1.5 2.5 2.7 3.1 1.2.6 1.6.9 1.6 1.4 0 .8-1 1.1-1.8 1.1-1.2 0-1.9-.2-2.9-.6l-.4-.2-.5 2.6c.7.3 2.1.6 3.4.6 3.2 0 5.3-1.5 5.4-3.9 0-1.3-.8-2.3-2.6-3.1-1.1-.5-1.7-.9-1.7-1.4 0-.5.6-1 1.8-1 1 0 1.7.2 2.3.4l.3.1.4-2.3m7.9-.3h-2.4c-.7 0-1.3.2-1.6.9l-4.6 10.4h3.2s.5-1.4.6-1.7h3.9c.1.4.4 1.7.4 1.7h2.9l-2.4-11.3m-3.8 7.3c.3-.7 1.2-3.2 1.2-3.2s.3-.7.4-1.1l.2 1s.6 2.7.7 3.3h-2.5zm-21-7.3l-3 7.7-.3-1.6c-.6-1.8-2.3-3.8-4.3-4.7l2.8 9.9h3.3l4.8-11.3h-3.3"/><path d="M238.6 600.1h-5v.2c3.9.9 6.4 3.2 7.5 5.9L240 601c-.2-.7-.7-.9-1.4-.9"/><path fill="#B2B3B3" d="M486.3 605.6c0 5.7-4.6 10.3-10.3 10.3-5.7 0-10.3-4.6-10.3-10.3 0-5.7 4.6-10.3 10.3-10.3 5.7 0 10.3 4.6 10.3 10.3z"/><path fill="gray" d="M462.2 595.3c-5.6 0-10.2 4.6-10.2 10.3 0 5.7 4.6 10.3 10.3 10.3 2.7 0 5.1-1 6.9-2.7.4-.3.7-.7 1-1.1h-2.1c-.3-.3-.5-.7-.8-1.1h3.6c.2-.4.4-.7.6-1.1h-4.8c-.2-.4-.3-.7-.4-1.1h5.7c.3-1 .5-2.1.5-3.3 0-.8-.1-1.5-.2-2.2H466c.1-.4.2-.7.3-1.1h5.7c-.1-.4-.3-.7-.4-1.1h-4.8c.2-.4.4-.7.6-1.1h3.6c-.2-.4-.5-.8-.8-1.1h-2c.3-.4.7-.7 1-1-1.8-1.6-4.3-2.6-7-2.6.1 0 0 0 0 0z"/><path d="M465.656 608.494l.1-.9h-.3c-.4 0-.4-.2-.4-.4l.4-1.9h.6l.1-1.1h-.5l.1-.6h-1.1s-.6 3.6-.6 4c0 .6.4.9.9.9.3.1.6 0 .7 0zm.4-1.8c0 1.5 1 1.9 1.9 1.9.8 0 1.2-.2 1.2-.2l.2-1.1s-.7.3-1.2.3c-1.2 0-1-.9-1-.9h2.3s.1-.7.1-1c0-.7-.4-1.6-1.6-1.6-1.1.1-1.9 1.3-1.9 2.6zm1.9-1.5c.6 0 .5.7.5.7h-1.2s.1-.7.7-.7zm6.9 3.3l.2-1.2s-.5.3-.9.3c-.8 0-1.1-.6-1.1-1.2 0-1.3.7-2 1.4-2 .6 0 1 .3 1 .3l.2-1.2s-.5-.4-1.1-.4c-1.7 0-2.7 1.2-2.7 3.2 0 1.4.7 2.3 2 2.3.4.1 1-.1 1-.1zm-15.2-4.3c-.7 0-1.3.2-1.3.2l-.2.9s.5-.2 1.2-.2c.4 0 .7 0 .7.4v.3h-.5c-1.1 0-1.9.4-1.9 1.6 0 1 .7 1.2 1.1 1.2.8 0 1.1-.5 1.1-.5v.4h1l.4-3c-.1-1.2-1.2-1.3-1.6-1.3zm.2 2.5c0 .2 0 1.1-.7 1.1-.3 0-.4-.3-.4-.4 0-.3.2-.7 1-.7h.1zm2.4 1.9c.2 0 1.7.1 1.7-1.4 0-1.4-1.3-1.1-1.3-1.6 0-.3.2-.4.6-.4h.7l.1-1s-.4-.1-1-.1c-.8 0-1.6.3-1.6 1.4 0 1.3 1.4 1.1 1.4 1.7 0 .4-.4.4-.7.4-.5 0-1-.2-1-.2l-.1 1c0 .1.2.2 1.2.2zm21.6-5.2l-.2 1.5s-.4-.6-1.1-.6c-1.2 0-1.8 1.2-1.8 2.6 0 .9.4 1.8 1.4 1.8.7 0 1-.5 1-.5v.4h1.1l.8-5.2h-1.2zm-.4 2.8c0 .6-.3 1.3-.9 1.3-.4 0-.6-.3-.6-.8 0-.8.4-1.4.9-1.4.4 0 .6.3.6.9zm-29.7 2.4l.7-3.9.1 3.9h.8l1.4-3.9-.6 3.9h1.1l.9-5.2h-1.8l-1.1 3.2v-3.2h-1.6l-.9 5.2h1z"/><path d="M470.656 608.594c.3-1.8.4-3.2 1.4-2.9.1-.7.5-1.3.6-1.6 0 0 0-.1-.3-.1-.5 0-1.1 1-1.1 1l.1-.6h-1l-.7 4.2h1zm6.5-4.4c-.8 0-1.3.2-1.3.2l-.2.9s.5-.2 1.2-.2c.4 0 .7 0 .7.4v.3h-.5c-1.1 0-1.9.4-1.9 1.6 0 1 .7 1.2 1.1 1.2.8 0 1.1-.5 1.1-.5v.4h1l.4-3c-.1-1.2-1.2-1.3-1.6-1.3zm.2 2.5c0 .2 0 1.1-.7 1.1-.3 0-.4-.3-.4-.4 0-.3.2-.7 1-.7h.1zm2.4 1.9c.2-1.3.5-3.2 1.4-2.9.1-.7 0-.7-.3-.7h-.6l.1-.6h-1l-.7 4.2h1.1z"/><path fill="#FFF" d="M466 608.2l.1-.9h-.3c-.4 0-.4-.2-.4-.4l.3-1.9h.6l.1-1h-.5l.1-.6h-1.1s-.6 3.6-.6 4c0 .6.4.9.9.9.4 0 .7-.1.8-.1zm.3-1.8c0 1.5 1 1.9 1.9 1.9.8 0 1.2-.2 1.2-.2l.2-1.1s-.6.3-1.2.3c-1.2 0-1-.9-1-.9h2.2s.1-.7.1-1c0-.7-.4-1.6-1.6-1.6-1 .1-1.8 1.3-1.8 2.6zm1.9-1.5c.6 0 .5.7.5.7h-1.2c0-.1.1-.7.7-.7zm7 3.3l.2-1.2s-.5.3-.9.3c-.8 0-1.1-.6-1.1-1.2 0-1.3.7-2 1.4-2 .6 0 1 .3 1 .3l.2-1.2s-.7-.3-1.2-.3c-1.3 0-2.5 1.1-2.5 3.2 0 1.4.7 2.3 2 2.3.3-.1.9-.2.9-.2zm-15.2-4.3c-.7 0-1.3.2-1.3.2l-.2.9s.5-.2 1.2-.2c.4 0 .7 0 .7.4v.3h-.5c-.9 0-1.9.4-1.9 1.6 0 1 .7 1.2 1.1 1.2.8 0 1.1-.5 1.1-.5v.4h1l.4-3c-.1-1.3-1.2-1.3-1.6-1.3zm.2 2.4c0 .2-.1 1-.8 1-.3 0-.4-.3-.4-.4 0-.3.2-.7 1-.7l.2.1zm2.3 2c.2 0 1.7.1 1.7-1.4 0-1.4-1.3-1.1-1.3-1.6 0-.3.2-.4.6-.4h.7l.1-1s-.4-.1-1-.1c-.8 0-1.6.3-1.6 1.4 0 1.3 1.4 1.1 1.4 1.7 0 .4-.4.4-.7.4-.5 0-1-.2-1-.2l-.1 1c0 .1.3.2 1.2.2zm21.7-5.3l-.2 1.5s-.4-.6-1.1-.6c-1 0-1.8 1.2-1.8 2.6 0 .9.4 1.8 1.4 1.8.7 0 1-.5 1-.5v.4h1.1l.8-5.2h-1.2zm-.5 2.9c0 .6-.3 1.3-.9 1.3-.4 0-.6-.3-.6-.8 0-.8.4-1.4.9-1.4.4 0 .6.2.6.9zm-29.6 2.3l.7-3.9.1 3.9h.8l1.4-3.9-.6 3.9h1.1l.9-5.2h-1.7l-1.1 3.2-.1-3.2H454l-.9 5.2h1zm16.8 0c.3-1.8.4-3.3 1.1-3 .1-.7.3-1 .4-1.3h-.2c-.5 0-.9.7-.9.7l.1-.6h-1l-.7 4.2h1.2zm6.806-4.3c-.7 0-1.3.2-1.3.2l-.2.9s.5-.2 1.2-.2c.4 0 .7 0 .7.4v.3h-.5c-.9 0-1.9.4-1.9 1.6 0 1 .7 1.2 1.1 1.2.8 0 1.1-.5 1.1-.5v.4h1l.4-3c-.1-1.3-1.2-1.3-1.6-1.3zm.2 2.4c0 .2-.1 1-.8 1-.3 0-.4-.3-.4-.4 0-.3.2-.7 1-.7l.2.1z"/><path fill="#FFF" d="M480.086 608.2c.3-1.8.4-3.3 1.1-3 .1-.7.3-1 .4-1.3h-.2c-.5 0-.9.7-.9.7l.1-.6h-1l-.7 4.2h1.2zm5.214-.6h.2c.1 0 .1.1.1.1v.4c0 .1-.1.1-.1.1h-.4c-.1 0-.1-.1-.1-.1v-.4c0-.1.1-.1.1-.1h.2m0 0h-.1l-.1.1v.2l.1.1h.2l.1-.1v-.2l-.1-.1h-.1m-.2.5v-.4h.2v.2c0 .1 0 0-.1 0l.1.1v.1h-.1v-.1s0-.1-.1-.1v.2m.1-.2h-.1"/><path d="M558.198 608.15c-.274.136-.41.273-.685.273-.275.137-.55.137-.823.137-.41 0-.685 0-.96-.137-.273-.137-.273-.274-.273-.685 0-.41.137-.548.274-.822.14-.137.42-.41.69-.548.28-.137.69-.137 1.1-.274.41 0 1.098-.138 1.235-.138s.137 0 .137.138c0 .137-.274.96-.274 1.37-.274.41-.41.548-.41.685zm2.877-6.442c-.685-.41-1.644-.548-3.014-.548-.68 0-1.37 0-2.05.137-.55.137-.55.137-.82.137-.683.137-.683.822-.683.822l-.274.823c-.137.54.137.54.274.41.272-.14.41-.14.96-.28.545-.14 1.093-.277 1.64-.277.688 0 1.236.137 1.51.274s.548.41.548.822v.273s-.136.14-.273.14c-.96 0-1.645.135-2.467.272-.823.136-1.508.273-2.193.55-.687.272-1.098.683-1.51 1.095-.275.547-.55 1.095-.55 1.78s.275 1.233.686 1.645c.41.41 1.097.55 1.782.55.41 0 .822 0 1.096-.138.277 0 .55-.138.825-.275.27-.138.41-.276.683-.41s.412-.277.686-.414v.276c-.14.274.134.55.41.686h1.505c.274 0 .685-.272.685-.684l1.232-5.344v-.82c.275-.55 0-1.1-.685-1.51m-21.1-.298c-.41 0-.82.274-1.095.685 0 0-2.466 4.11-2.603 4.52-.138.274-.275.137-.275 0s-.687-4.522-.687-4.522c-.14-.41-.41-.686-.96-.686h-1.508c-.41 0-.548.273-.548.684 0 0 1.095 6.577 1.37 8.084.136.82 0 .96 0 .96l-1.508 2.602c-.274.41-.137.685.274.685h1.78c.416 0 .827-.27 1.1-.683l6.717-11.375s.683-.96 0-.96h-2.057m-17.465-1.16a3.202 3.202 0 0 0-.96-.96c-.41-.275-.96-.41-1.507-.55-.546-.136-1.232-.136-1.917-.136h-3.56c-.413 0-.687.275-.824.686l-2.33 10.28c-.136.41.138.686.55.686h1.644c.41 0 .685-.276.82-.687l.55-2.47c.137-.41.41-.684.823-.684h.548c2.06 0 3.7-.41 4.8-1.23 1.098-.825 1.78-1.92 1.78-3.29a14.22 14.22 0 0 0-.41-1.646m-3.7 3.426c-.55.41-1.23.547-2.053.547h-.41c-.412 0-.55-.275-.55-.686l.55-2.19c.136-.413.41-.687.82-.687h.55c.684 0 1.095.14 1.506.276.277.273.55.55.55.96-.14.82-.41 1.37-.96 1.78m34.22-3.38a3.202 3.202 0 0 0-.96-.96c-.41-.275-.96-.41-1.507-.55-.547-.137-1.232-.137-1.917-.137h-3.564c-.414 0-.688.275-.825.686l-2.33 10.276c-.136.41.138.685.55.685h1.643c.41 0 .684-.274.82-.685l.547-2.468c.136-.41.41-.685.82-.685h.41c2.055 0 3.7-.41 4.795-1.233 1.096-.824 1.78-1.92 1.78-3.29a5.11 5.11 0 0 0-.273-1.646m-3.7 3.428c-.546.413-1.23.55-2.054.55h-.41c-.41 0-.548-.275-.548-.686l.546-2.19c.14-.41.41-.687.824-.687h.55c.683 0 1.094.137 1.505.274.274.277.55.55.55.96-.14.824-.41 1.37-.96 1.78m-21.69 4.39c-.273.14-.41.276-.685.276-.272.136-.546.136-.82.136-.41 0-.685 0-.96-.138-.273-.138-.273-.275-.273-.686 0-.414.138-.55.275-.825.14-.136.41-.41.687-.547.27-.14.682-.14 1.093-.277.413 0 1.098-.138 1.235-.138s.136 0 .136.136-.274.96-.274 1.37c-.136.41-.41.55-.41.685zm3.015-6.3c-.683-.41-1.642-.55-3.012-.55-.686 0-1.37 0-2.056.137-.547.137-.547.137-.82.137-.686.137-.686.822-.686.822l-.136.822c-.14.55.135.55.272.41.275-.138.412-.138.96-.275s1.096-.274 1.644-.274c.686 0 1.234.135 1.51.272s.546.412.546.823v.273s-.137.14-.274.14c-.96 0-1.646.134-2.468.27-.823.137-1.508.274-2.193.548-.685.275-1.096.686-1.51 1.097-.272.55-.55 1.098-.55 1.783s.278 1.232.69 1.643c.41.41 1.095.55 1.78.55.41 0 .82 0 1.095-.137.275 0 .55-.136.823-.273.273-.14.41-.275.684-.412.274-.136.41-.273.685-.41v.274c-.137.277.137.55.41.688h1.51c.273 0 .684-.274.684-.685l1.234-5.34v-.824c.137-.684-.274-1.232-.823-1.506m36.203-3.1h-1.508c-.415 0-.69.276-.826.55 0 0 0 .14-.138.41l-2.056 9.32c0 .274-.136.41-.136.41-.137.275.137.55.41.686h1.508c.275 0 .686-.276.823-.55l2.194-10.14c.41-.41.137-.686-.274-.686m2.845 2.12h-.274c-.133 0-.27 0-.41-.137-.134-.138-.134-.275-.134-.412v-.82h-.137v-.275h.14v-.41h.27v.41h.547v.272h-.548v.96l.136.135c.135.136.135 0 .135 0h.275v.274m2.775-.07h-.276v-1.23s0-.14-.136-.14h-.412c-.137 0-.137.14-.274.14v1.37h-.275v-1.23s0-.137-.137-.137h-.41c-.135 0-.135.138-.272.138v1.234h-.272v-1.644h.274v.137c.138-.136.138-.136.275-.136h.275c.14 0 .14 0 .275.14l.137.136c.136-.135.273-.135.273-.135h.275c.14 0 .277 0 .41.14.14.137.14.274.14.41v.823M401.7 603.8v-2c0-.8.4-1.1 1.2-1 .3 0 .3.2.3.4v8.7c0 .1-.1.3-.2.3-1.3.3-2.6.4-3.9.2-1.4-.2-2.2-1.1-2.4-2.5-.1-.9-.1-1.8.2-2.6.6-1.7 2-2.2 3.6-2 .3.1.7.3 1.2.5zm-.1 5.5v-3.4c0-.5-.2-.9-.7-1-.4-.1-.9-.2-1.4-.2-.7 0-1.2.4-1.5 1-.3.6-.3 1.3-.2 2 .1 1 .7 1.6 1.7 1.7.8 0 1.4-.1 2.1-.1zm-60.8-5.4c.9-.5 1.8-.6 2.8-.4 1.1.2 1.9.9 2.2 1.9.3 1 .3 2.1 0 3.2-.4 1.3-1.3 1.9-2.5 2-1.2.1-2.4.1-3.6-.2-.2-.1-.3-.2-.3-.4v-8.7c0-.3.1-.4.4-.4.7-.1 1.1.2 1.1.9-.1.6-.1 1.3-.1 2.1zm0 3.5v1.7c0 .2.1.3.3.3.4 0 .8.1 1.1.1 1.4 0 2.1-.5 2.3-1.9.1-.6-.1-1.3-.2-1.9-.3-.8-1.2-1.1-2.3-.9-.9.2-1.1.5-1.1 1.4-.1.3-.1.7-.1 1.2zm33 4l1.8.3h.2c1.5.2 2.3-.6 2-2.2-.9.7-1.9.6-2.9.4-1-.2-1.5-1-1.5-2.1v-3.6c0-.3 0-.6.3-.6.3-.1.7 0 1 0 0 0 .1.3.1.4v3.4c.1 1.3 1.4 1.9 2.5 1.2.4-.3.5-.7.5-1.2v-2.9c0-.8.6-1.2 1.4-.9.1 0 .1.2.1.2 0 2.2 0 4.5-.1 6.7 0 1.4-.9 2.2-2.2 2.4-1.1.2-2.3 0-3.4-.4-.1 0-.2-.2-.2-.3.2-.3.3-.5.4-.8zm18.6-1H391c0-.2 0-.4-.1-.6-.1 0-.2.1-.2.1-1.6 1.3-3.9.7-4.6-1.3-.4-1.1-.4-2.2 0-3.4.4-1.2 1.3-1.8 2.5-2 1.2-.1 2.3.1 3.3.6.3.2.4.4.4.7v5.3c.1.3.1.4.1.6zm-1.4-3.6v-1.5c0-.1-.1-.3-.2-.3-.6-.1-1.1-.3-1.7-.4-.8 0-1.4.4-1.5 1.2-.1.6-.1 1.3 0 1.9.1 1.2.8 1.7 2 1.5.4-.1.7-.3 1-.5.3-.2.4-.4.4-.8v-1.1zm-18.6 3.6h-1.3c0-.2 0-.4-.1-.6-.1.1-.2.1-.2.1-1.4 1.2-3.7.8-4.4-.9-.6-1.3-.6-2.6-.1-3.9.4-1.1 1.3-1.6 2.4-1.8 1.2-.1 2.4.1 3.4.7.1.1.3.3.3.5v5.9zm-1.4-3.6v-1.5c0-.1-.1-.3-.2-.3-.6-.2-1.1-.3-1.7-.4-.6 0-1.2.3-1.4.9-.3.9-.3 1.9 0 2.8.2.5.6.9 1.1 1 .7.1 1.4-.1 1.9-.6.1-.1.2-.3.2-.5.2-.5.1-.9.1-1.4zm-17.9 3.6h-1.3c0-.2-.1-.4-.1-.6h-.1c-.9 1-2 .9-3.1.5s-1.6-1.3-1.7-2.4c-.2-1-.1-2 .3-2.9.5-1 1.3-1.6 2.4-1.7 1.2-.1 2.4.1 3.4.7.1.1.3.3.3.4v5.7c-.1.2-.1.2-.1.3zm-1.4-3.6v-.6c0-1.3-.2-1.5-1.5-1.6h-.4c-.8 0-1.4.4-1.5 1.2-.1.7-.1 1.5 0 2.2.1.7.6 1.2 1.3 1.3.6.1 1.2-.1 1.7-.5.2-.2.3-.4.3-.7.1-.4.1-.8.1-1.3zm10.4-1.6c-.5-.5-1.1-.6-1.8-.6s-1.2.4-1.4 1.1c-.2.8-.2 1.6 0 2.4.3 1.2 1.1 1.4 2.2 1.2.4-.1.7-.3 1.1-.5l.7.7c0 .1 0 .3-.1.3-.2.2-.5.4-.8.5-1 .4-2 .4-3 0-.7-.2-1.2-.7-1.5-1.4-.5-1.2-.5-2.5-.1-3.7.4-1.2 1.5-1.9 2.7-1.9.7 0 1.4 0 2 .4.3.2.6.4.6.7.1.4-.1.6-.6.8z"/><path d="M385 605.3c-.5-.5-1.1-.7-1.8-.6-.8 0-1.4.4-1.5 1.2-.1.7-.1 1.4 0 2.1.2 1.3 1.1 1.6 2.3 1.4.4-.1.7-.3 1.1-.5.2.2.5.5.7.8 0 .1 0 .3-.1.3-.3.2-.6.4-.9.5-.8.3-1.6.3-2.4.1-1.1-.2-1.8-.8-2.1-1.9-.4-1.2-.4-2.5.1-3.6s1.4-1.6 2.5-1.7c.7 0 1.4 0 2 .4 1 .4 1 .9.1 1.5zm-19.8 5.1h-1.5v-8.7c0-.9.6-1.3 1.4-.9.1 0 .2.2.2.3v8.6c-.1.3-.1.5-.1.7zm29.6 0h-1.5v-4.5c0-1.6.9-2.5 2.5-2.5.4 0 .8.1 1.3.1-.2.4-.4.7-.6 1-.1.1-.2.1-.3.1-1 0-1.3.3-1.3 1.3v4.1c-.1.1-.1.2-.1.4zm-37-7c-.2.4-.4.7-.6.9-.1.1-.2.2-.3.2-1.1.1-1.4.3-1.4 1.5v4.4H354v-4.6c0-1.5.9-2.4 2.4-2.4h1.4zm-22.4 2.3c0 5.2-4.2 9.5-9.5 9.5-2.9 0-5.4-1.3-7.2-3.3 1.1.3 3.4.8 5.9.3 3.6-.7 7.2-4.6 7.7-7 .6-2.4-.3-5.2-1.8-6.6-1.6-1.3-2.7-1.7-3.4-1.8-.7-.1-1.6-.1-1.6-.4 0-.2.1-.2.3-.2h.2c5.1.1 9.4 4.3 9.4 9.5z"/><path fill="gray" d="M325.2 612c-.2.1-.4.1-.7.2-2.5.5-4.7 0-5.9-.3-.1-.1-.4-.2-.1-.4.3-.2.8-.4 1.4-.4 1-.1 2.7.1 4.1.5.7.1 1 .3 1.2.4zm3.1-1.5c-.6.4-1.1.8-1.8 1.1-.6-.7-1.6-1.6-3.7-2.7-2.2-1.2-5.3-1.1-6.1-1.1v-.2c1-.6 3-.9 5.4-2.1.5-.3 1-.6 1.4-.9.3.1.6.2.8.4 1.1.7 2.4 2.1 3.3 3.9.3.5.5 1.1.7 1.6zm4-5.3c-.3 1.1-1.2 2.6-2.5 3.9-.1-.8-.4-2.8-1.3-4.6-1.2-2.3-3.3-4.2-4.5-4.8l-1.2-.7c.1 0 .9-.1.9-.5 0-.3-.5-.4-.9-.4s-1.5-.3-.1-.8 4.5.5 7.1 2.7c2.6 2.2 2.7 3.1 2.7 3.1v.1c0 .7 0 1.4-.2 2z"/><path d="M326.4 600.9c-.2.7-1.4 3.1-4.3 4.5-2.4 1.2-4.4 1.5-5.4 2.1-.1-.6-.2-1.1-.2-1.7 0-1.1.2-2.2.6-3.2.5-.3 1.3-.7 2.3-.9 2.3-.4 4.3-.8 5-1.3.7-.5.7-.8.6-1.2-.1-.3 0-.9.6-.6.6.2 1 1.5.8 2.3zm-2.8-2.3c0 .1 0 .1-.1.2-.2.1-.5.2-.8.3-.3.1-.6.1-.9.1 0 0-3.1.1-1.8-.9s3-1.2 4-1c-.6-.1-1.1 0-1.4.1-1.4.5-.3.8.1.8.5 0 .9 0 .9.4z"/><path fill="none" stroke="#000" stroke-width="2.5" stroke-linecap="round" stroke-linejoin="round" stroke-miterlimit="10" d="M1042.4 313.7s.2-2.6 3.1-2.6c0 0 2.5-.1 2.8 2.7 0 0 .2 2-1.9 2.7 0 0-1.4.4-1.2 1.8v.8"/><path d="M1045 321.3s-.9.3-1 1.4c0 0-.1 1.4 1 1.5 0 0 1.5.2 1.7-1.5 0 0 .3-1.2-1.7-1.4z"/><path fill="none" stroke="#000" stroke-width="2.5" stroke-miterlimit="10" d="M1058.8 316.9c0 3.3-1.2 6.3-3.2 8.6-2.4 2.9-6.1 4.7-10.2 4.7-4.3 0-8.1-2-10.5-5.1-1.8-2.3-2.8-5.1-2.8-8.2 0-2.8.9-5.4 2.4-7.6 2.4-3.5 6-5.8 10.5-5.8 3.2 0 7 1.1 9.4 2.8 3.4 2.6 4.4 6.4 4.4 10.6z"/><circle fill="none" stroke="gray" stroke-miterlimit="10" cx="830" cy="317.9" r="11"/><circle fill="#333" cx="830" cy="317.9" r="5.1"/><circle fill="none" stroke="gray" stroke-miterlimit="10" cx="756" cy="317.9" r="11"/><path fill="#FFF" stroke="gray" stroke-miterlimit="10" d="M963.2 306.6h22v22h-22z"/><path d="M968.6 318.9c1.7 1.5 3.3 2.9 4.7 4.5.4.5 1.3.5 1.7 0 2.8-3 5.1-6.3 7.4-9.7.9-1.3-1.2-2.5-2.1-1.2-2.5 3.5-4.4 6.4-7.1 9.3h1.7c-1.5-1.7-3.1-3.1-4.7-4.5-1.1-1.1-2.8.6-1.6 1.6z"/><path fill="#FFF" d="M889.7 308.1h21v21h-21z"/><path fill="gray" d="M910.7 308.1v20h-20v-20h20m1-1h-22v22h22v-22z"/><path d="M1112.8 172h10c1.9 0 1.9-3 0-3h-10c-2 0-2 3 0 3z"/><path d="M1116.2 165.5v10c0 1.9 3 1.9 3 0v-10c0-1.9-3-1.9-3 0z"/><path fill="#E50000" d="M1117 322.7s-.9.3-1 1.4c0 0-.1 1.4 1 1.5 0 0 1.5.2 1.7-1.5 0 .1.3-1.2-1.7-1.4z"/><path fill="none" stroke="#E50000" stroke-width="3" stroke-linecap="round" stroke-linejoin="round" stroke-miterlimit="10" d="M1130.7 317.3c0 3.3-1.2 6.3-3.2 8.6-2.4 2.9-6.1 4.7-10.2 4.7-4.3 0-8.1-2-10.5-5.1-1.8-2.3-2.8-5.1-2.8-8.2 0-2.8.9-5.4 2.4-7.6 2.4-3.5 6-5.8 10.5-5.8 3.2 0 7 1.1 9.4 2.8 3.4 2.6 4.4 6.4 4.4 10.6zm-13.2-6.5v9"/><path d="M536.5 158c.6 0 .9.4 1.2 1.1.5 1.1 2.3 5.1 2.3 5.1s.5 1-.9 1.6c-2.2 1.1-3 1.3-2.7 3.9.2 1.6.6 2.9 1.2 4 .5 1.2 1.2 2.3 2.2 3.5.9 1 1.5 1.4 2.2 1.4.7 0 1.4-.3 2.5-.8.3-.1.6-.2.8-.2.8 0 1 .6 1 .6s1.8 4 2.3 5.1c.4 1 .5 1.5-.9 2.3-1.4.7-2.3 1.4-3.4 1.4-.4 0-.9-.1-1.5-.4-4.4-2.1-6.8-5.7-9.3-11.2s-3.5-9.7-2.2-14.4c.6-2 1.9-2.2 4-2.9.6 0 .9-.1 1.2-.1m0-2.2c-.5 0-1.1.1-1.8.4-.2.1-.5.2-.7.2-1.8.6-3.9 1.3-4.7 4.2-1.6 5.5-.2 10.3 2.3 15.9s5.2 9.8 10.4 12.3c.8.4 1.6.6 2.4.6 1.5 0 2.6-.6 3.8-1.3l.6-.3c2.2-1.2 2.8-2.9 1.8-5.1l-2.3-5.1c-.4-1-1.5-1.9-3-1.9-.5 0-1.1.1-1.6.3l-.4.2c-.4.2-1 .4-1.2.5-.1-.1-.3-.2-.6-.6-.8-.9-1.4-1.8-1.9-3s-.8-2.2-1-3.4c-.1-.5-.1-.7-.1-.8.2-.2.7-.4 1.2-.6l.3-.2c1.3-.6 1.8-1.6 2.1-2.2.4-1.1 0-2-.1-2.3l-2.3-5.1c-.3-.9-1.1-2.7-3.2-2.7z"/><g fill="#1D1D1B"><path d="M605.8 168.6v-3.5c0-5 4.5-7.5 8.9-6.4 5 1.2 4.5 6.7 4.5 10.6 0 1.2 1.8 1.2 1.8 0 0-5.5-.1-11-6.6-12.5-3.6-.8-7.1.4-8.9 3.6-1.5 2.7-1.5 5.3-1.5 8.3 0 1 1.8 1 1.8-.1z"/><path d="M610 168.5c0-2.2-.6-5.6 2.5-5.8 3.1-.2 2.5 4.1 2.5 6 0 1.2 1.8 1.2 1.8 0v-3.6c0-2.1-1.8-4-3.9-4.1-2.2-.1-4.5 1.4-4.6 3.7-.1 1.3 0 2.6 0 3.9-.1 1.1 1.7 1.1 1.7-.1z"/><path d="M622.5 180.6c-.2 3.4.4 2.7-2.5 2.6-1.6 0-3.1-.1-4.7-.1-2.4-.1-4.8-.1-7.2-.1-1.4 0-5.6.7-5.7-1.8 0-1.2.1-2.5.1-3.8 0-2.3-1.1-7.7 2.5-7.7h14c2.5 0 3.5.3 3.5 3.1-.1 2.7-.2 5.3 0 7.8.1 1.2 1.9 1.2 1.8 0-.2-3.8 2.2-12.6-3.7-12.6h-10.5c-2 0-6.1-.7-7.9.5-2.3 1.5-1.7 5.4-1.6 7.7 0 1.9-1 7 1.3 8.1 3 1.4 7.2.5 10.4.5 3.4.1 6.8.2 10.2.2.3 0 .7-.2.8-.4.6-1.4.9-2.6 1-4 0-1.1-1.8-1.1-1.8 0z"/></g><path d="M692 166.9c0-3.9-3.2-7-7-7s-7 3.2-7 7c0 .7.1 1.3.3 2l6.7 12.2 6.9-12.2c0-.6.1-1.3.1-2zm-7.1 3.5c-1.9 0-3.5-1.6-3.5-3.5s1.6-3.5 3.5-3.5 3.5 1.6 3.5 3.5c0 2-1.5 3.5-3.5 3.5z"/><path fill="#21A15A" d="M1177.6 319c1.9 1.5 3.5 3 5.1 4.8.4.5 1.3.5 1.7 0 4.2-4.5 7.5-9.4 11.1-14.5.9-1.3-1.2-2.5-2.1-1.2-3.6 5.2-6.7 9.7-10.7 14h1.7c-1.6-1.8-3.2-3.3-5.1-4.8-1.2-.9-2.9.8-1.7 1.7z"/><circle cx="577.4" cy="425.5" r="34"/><path fill="#FFF" d="M578 437.4c-4-3.4-8.3-6.6-10.7-11.3-1.4-2.8-1.2-7.7 1.5-9.6 1.8-1.3 4.4-.8 5.8.8.9 1 1.3 2.3 2 3.5.3.6 1.3.6 1.6 0 .6-1.2 1.1-2.5 2-3.5 1.5-1.7 4.3-1.8 6.2-.9 2.7 1.3 2.3 6.8 1.2 9.1-1.4 2.9-3.9 5.3-6.1 7.6-1.5 1.5-3 3-4.7 4.3-.9.7 0 2.3.9 1.6 2.3-1.8 4.4-3.9 6.4-6 2.4-2.5 5.8-5.9 6-9.6.2-3.8-.2-7.5-4.4-8.6-4.7-1.2-7.4 1.1-9.1 6.1h1.6c-1.8-4-3.2-6.5-7.4-6.3-4.5.2-6.1 4.4-6.1 8.3 0 7.1 7.1 11.9 12 16.1.9.6 2.2-.8 1.3-1.6z"/><circle cx="433.5" cy="425.5" r="34"/><path fill="#FFF" d="M423.3 422.4c-2.8 3.4-2 8.3-2 12.4 0 3.9 4.3 6.2 7.7 6.5 1.8.1 3.6 0 5.4 0 1.5 0 3 .1 4.5 0 1.8-.2 3.1-1.2 3.2-3.1.1-2.2-2.1-2.9-3.9-3-1 0-1 1.5 0 1.6 1.7.2 4.7-.2 5.2-2.3.7-2.5-.6-4.2-3.2-4.3-1-.1-1 1.5 0 1.6 1.7.2 4.3-.4 4.9-2.2.9-2.4-.9-4.3-2.9-4.4v1.6c3-.1 4.5-5.7.2-6.5-3.6-.6-7.9.1-11.5.4-1 .1-1.1 1.7-.1 1.6 2.4-.2 4.7-.5 7-.5 1.5 0 3.6-.3 5 .3 1.6.8-.1 3-1.4 3-1 0-1 1.5 0 1.6 2.1.1 2.8 2.4.7 3.2-.6.2-.9.3-1.9.2v1.6c2 .1 2.6 1.9 1.1 3-.8.6-2.1.6-3.1.5v1.6c2 .1 3.5 2.2.7 2.9-.8.2-1.8.1-2.6.1-3 0-6.5.5-9.5-.4-1.7-.5-3.1-1.8-3.7-3.5-.4-.9-.3-1-.3-1.8 0-3.4-.7-7.8 1.5-10.6.7-.8-.4-1.9-1-1.1z"/><path fill="#FFF" d="M425 422.9c2.2-3.2 4.1-5.9 5.1-9.7.3-1 1.4-3 2.7-2.4.9.4.2 2.5 0 3.4-.4 2.2-.8 4.4-1.3 6.6-.2 1 1.3 1.4 1.5.4.5-2.5 1-5 1.4-7.5.4-2.2-.2-5.5-3.2-4.2-2.4 1.1-2.9 4.1-3.8 6.4-.8 2.1-2.4 4.1-3.9 6.2-.5.8.9 1.6 1.5.8zm10.2 4.9h6c1 0 1-2 0-2h-6c-1 0-1 2 0 2 0 0-1 0 0 0zm0 4h7v-1h-7c-1 0-1 1 0 1 0 0-1 0 0 0zm-.4 4.9h3.9c1 0 1-1.6 0-1.6h-3.9c-1.1.1-1.1 1.6 0 1.6z"/><circle cx="290" cy="425.5" r="34"/><path fill="#FFF" d="M298.1 420.5c-8.6.1-15.8-.2-24.4.1-1.3 0-2.2 1-2.2 2.2-.1 4.1-.7 7.2 1.4 10.9 2.4 4.4 7.7 4 12 4 4 0 9.2.7 11.9-2.9 2.8-3.7 1.9-8 1.9-13 0-1-1.5-1-1.5 0v7.1c0 5.5-4.4 7.9-9.1 7.9h-7.8c-6.8 0-7.3-6.7-7.2-11.7 0-.5 0-.5.1-1.5.1-1.3 1.3-1.2 2.4-1.2h9c4.5 0 9-.1 13.5-.2 1 0 1-1.7 0-1.7z"/><path fill="#FFF" d="M281.2 423.3s-.3-2.7-.3-4.3c0-.5-.2-1.1-.1-1.6.2-2.2 2.3-3.8 4.6-3.6 1.9.2 4.2.7 4.9 2.6.3.7-.1 1.5-.1 2.3v6.1c0 1 2 1 2 0v-7.3c0-3.4-2.9-5-5.9-5.3-3.5-.4-7.4 1.5-7.7 5.1-.1 2.1 0 5.5 0 7.5 0 1 2.6 1 2.6 0v-1.5zm31.7.1c-3.3.1-6.6.2-9.9.4-2.1.1-2.1 3.4 0 3.3 3.3-.1 6.6-.2 9.9-.4 2.1-.1 2.1-3.4 0-3.3z"/><path fill="#FFF" d="M307 421.7c2 1.8 4.3 3.2 6.4 4.8-.2-.8-.4-1.5-.6-2.3-1.5 2-3 4.1-4.4 6.2-1.2 1.7 1.6 3.4 2.8 1.7 1.5-2 3-4.1 4.4-6.2.6-.8.1-1.8-.6-2.3-1.9-1.4-4.2-2.9-5.7-4.3-1.6-1.4-3.9.9-2.3 2.4z"/><path d="M319.6 242.9c.4-8.4 13.2-9.2 13.9-.5.8 9.6-13.6 10.2-14.1.6 0-1-1.5-1-1.5 0 .2 4.7 3.5 8.3 8.3 8.6 5.1.3 8.3-3.7 8.8-8.4 1-11.1-16.4-11.2-16.9-.3 0 1 1.5 1 1.5 0z"/><path d="M316.8 256.5c1.7-2 3.2-4.1 5-6.1.7-.7-.4-1.8-1.1-1.1-1.8 1.9-3.3 4-5 6.1-.5.8.5 1.9 1.1 1.1z"/><path fill="none" stroke="#000" stroke-miterlimit="10" d="M251 256.6c-.5-.3-.6-.8-.6-1.7V251h-2c-4.2-.6-7-3.2-7-7.3 0-4.6 3.6-7.4 8.2-7.4h12.1c4.6 0 8.3 2.9 8.3 7.5s-3.7 7.5-8.3 7.5h-3.9l-5 4.6c-.4.3-1.2 1.1-1.8.7z"/><path d="M251.7 256.2c-.9-1.2-.5-3.7-.5-5.1 0-.5-.4-.9-.9-.9-5.3-.1-10-3.7-7.3-9.6 1.4-3.1 5-3.3 7.9-3.3h10.6c6.6 0 10.3 7.7 4.5 12-2.2 1.6-5.4 1.2-8 1.2-2.9 0-4.2 5.1-7.1 5.3-1.2.1-1.2 1.9 0 1.8 2.8-.2 5.1-3.3 7-5.2.3-.3 2.4-.1 3.6-.1 2.4 0 4.4-.8 6.3-2.2 3.3-2.4 3.4-6.9 1.8-10.3-1.6-3.6-6-4.3-9.5-4.3-6.9 0-17.5-2-19.7 6.8-.9 3.6 1.4 7.8 4.9 9 .9.3 1.9.7 2.8.7 1.8 0 1.1-.8 1.2.1 0 1.7-.3 3.6.7 5 .9.9 2.4 0 1.7-.9zm158.5-15.3c1.1 0 1.1-1.7 0-1.7-9.1.1-16.6-.2-25.7.1-1.4 0-2.3 1.1-2.3 2.3-.1 4.3-.7 7.6 1.4 11.5 2.5 4.7 8.1 4.3 12.6 4.3 4.2 0 9.7.6 12.6-3.2 3-3.9 2-9.1 2-13.9"/><path d="M391.5 242.3s.1-2.3.1-4.3v-2.1c.2-2.3 2.7-3.8 5.1-3.7 2 .1 3.5.8 4.2 2.8.3.7.3 2 .3 2.8 0 1.7.1 4.9.1 5.7 0 .8 2.2.9 2.2.1 0-1.7-.2-4.4-.2-7.4 0-3.6-2.7-5.4-5.9-5.8-3.9-.5-7.7 1.6-8 5.4-.1 2.2.1 5.3.1 7.8 0 .8 2.1.9 2.1.1.1 0-.1-.5-.1-1.4zm359.2 1.8c1.8 2.2 4 3.8 5.9 5.9.3.4 1 .3 1.3 0 2-2.1 4-4.1 6.1-6.1.8-.8-.4-2.1-1.3-1.3-2.1 2-4.1 4-6.1 6.1h1.3c-1.9-2.1-4.1-3.7-5.9-5.9-.7-.8-2 .4-1.3 1.3z"/><g fill="#231F20"><path d="M531.4 253.3c0-2.7.3-4.7 3.2-5.8 1.8-.7 3.7-.7 5.6-.9 4.4-.4 9.4 1.8 9.4 6.7 0 1.2 1.8 1.2 1.8 0 0-3.3-.6-5.3-3.7-6.9-2-1.1-5.2-1.8-7.5-1.5-3 .3-6 .4-8.5 2.2-2.1 1.4-2.1 4-2.1 6.3 0 1.1 1.8 1.1 1.8-.1z"/><path d="M537 238.6c.8-2.1 2.8-3.2 5-2.6 2.2.6 2.9 3.1 2.5 5.1-1 5.2-9 2.5-7.7-2.6.3-1.1-1.4-1.6-1.7-.5-1.8 6.9 8.2 10.8 11 4 1.1-2.8-.4-6.5-3.2-7.6-3.3-1.3-6.5.5-7.7 3.7-.4 1.1 1.4 1.6 1.8.5z"/></g><path d="M612.9 255.4l-.5-.4c-.9-.7-9-6.6-9-11.1 0-.2 0-.3.1-.5 0-.3-.1-.5-.1-.8 0-2.9 2.4-5.2 5.4-5.2 1.6 0 3.1.7 4.1 1.8 1-1.1 2.5-1.8 4.1-1.8 3 0 5.4 2.3 5.4 5.2 0 .3 0 .5-.1.8 0 .2.1.3.1.5 0 3.4-8.1 10.3-9 11l-.5.5zm-4.1-16.5c-2.1 0-3.8 1.6-3.8 3.7 0 .2 0 .5.1.7v.2l-.1.2v.2c0 2.9 5.3 7.5 7.9 9.4 3.3-2.8 7.9-7.5 7.9-9.4v-.2l-.1-.2v-.2c0-.2.1-.4.1-.7 0-2-1.7-3.7-3.8-3.7-1.4 0-2.7.7-3.4 1.9l-.7 1.3-.7-1.3c-.7-1.1-2-1.9-3.4-1.9z"/><g fill="#333"><path d="M827.1 240.3c.4-1.5 1.4-3.5 2.4-4.7 1.6 1.2 1 4 2.8 4.9 1.2.6 3.8.3 5.1.7-.8 1.6-4.1 2-4.1 4 0 .9.7 2.1.9 3 .3.9.4 2 .8 2.8-1.3-.8-3.8-3.3-5.4-3.1-1.4.2-3.2 2-4.6 2.5-.7-1.7 1.2-3.8.7-5.5-.6-1.6-3.4-2.5-4.3-3.9.8-.1 5.7.1 5.7-.3"/><path d="M827.6 240.4c.6-1.6 1.3-3.1 2.3-4.5-.3 0-.5.1-.8.1 1.2 1.2.9 3.5 2.3 4.5 1.7 1.2 3.8.7 5.7 1.1-.1-.3-.2-.5-.3-.8-.9 1.3-3.7 1.8-4 3.6-.3 2 .9 4.8 1.6 6.7.3-.2.5-.4.8-.6-1.6-1.1-3.1-2.5-5-3.1-1.9-.6-4.1 1.8-5.6 2.5.3.1.5.2.8.3-.3-1.7 1.5-4 .6-5.6-1-1.8-3.1-2.4-4.4-4-.1.3-.2.6-.4.9 1.6-.2 4.8.6 6.1-.4.5-.4-.2-1.2-.7-.7-.9.7-4.2 0-5.3.1-.5.1-.7.5-.4.9 1 1.2 2.3 1.9 3.5 2.8 1.4 1.1-.3 4.6 0 6.3.1.4.5.4.8.3 1.8-.8 3.7-3 5.9-2 1.3.6 2.4 1.7 3.6 2.5.4.2.9-.2.8-.6-.5-1.4-2.4-5.4-1.1-6.8 1-1.1 2.5-1.4 3.4-2.6.2-.3 0-.7-.3-.8-1.9-.4-5 .4-5.9-1.9-.6-1.3-.6-2.4-1.7-3.5-.3-.3-.6-.2-.8.1-1.1 1.5-1.9 3.1-2.4 4.8-.3.8.7 1.1.9.4z"/></g><path fill="#333" d="M899.1 240.5c.8-1.8 1.6-3.5 2.5-5.2-.3 0-.5.1-.8.1 1.4 1.4 1.4 3.7 2 5.4.1.2.3.4.5.4 1.9 0 3.8.1 5.6.3-.1-.3-.2-.6-.4-.9-1.6 1.3-3.7 2.1-4.3 4.2-.6 1.8 1 4.7 1.6 6.3.3-.2.5-.4.8-.6-1.4-1-3.5-3.2-5.4-3.1-2 .1-3.7 1.2-5.3 2.3.3.2.5.4.8.6.4-1.7 1.8-4 1.1-5.7-.6-1.8-3.3-2.9-4.5-4.1-.1.3-.2.6-.4.9 1.8-.1 3.5-.1 5.2-.6.7-.2.4-1.2-.3-1-1.6.4-3.3.4-4.9.6-.4 0-.7.6-.4.9 1.1 1 2.4 1.8 3.5 2.8 1.7 1.4 0 4.4-.4 5.9-.1.4.4.9.8.6 1.8-1.2 3.7-2.8 6-1.7 1.3.6 2.5 1.6 3.6 2.4.4.3.9-.2.8-.6-.6-1.7-1.4-3.4-1.6-5.2-.3-2 2.8-3.3 4.1-4.3.4-.3 0-.8-.4-.9-1.7-.2-5.1.5-5.5-1.4-.4-1.6-.6-3.2-1.8-4.4-.2-.2-.7-.2-.8.1-.9 1.7-1.7 3.4-2.5 5.2-.4.8.5 1.4.8.7z"/><g fill="#231F20"><path d="M686.5 227.6c-8.6 0-15.6 7-15.6 15.6s7 15.6 15.6 15.6 15.6-7 15.6-15.6-7-15.6-15.6-15.6zm4 15.5c0 2.2-1.8 4.1-4.1 4.1-.6 0-1.2-.1-1.7-.4-.2-.1-.3-.2-.5-.3-.2-.1-.3-.2-.4-.3-.5-.4-.9-1-1.2-1.6-.2-.5-.3-1-.3-1.5 0-2.2 1.8-4.1 4-4.1.6 0 1.2.1 1.7.4.2.1.3.2.5.3.2.1.3.2.4.3.5.4.9 1 1.2 1.6.3.5.4 1 .4 1.5zm-7.4 4.1c.2.2.4.3.6.4l-4.8 7.6c-.5-.3-1-.7-1.5-1.1l5.7-6.9zm6.8-8.1c-.2-.1-.4-.3-.6-.4l4.8-7.6c.5.3 1 .7 1.5 1.1l-5.7 6.9zm-3.4-10.3c2.1 0 4.1.5 5.9 1.3l-3.7 8.2c-.7-.3-1.4-.5-2.2-.5-2.9 0-5.3 2.4-5.3 5.3 0 .7.1 1.4.4 2l-8.4 3.4c-.7-1.6-1-3.4-1-5.3-.1-8 6.4-14.4 14.3-14.4zm0 28.7c-2.1 0-4.1-.5-5.9-1.3l3.7-8.2c.7.3 1.4.5 2.2.5 2.9 0 5.3-2.4 5.3-5.3 0-.7-.1-1.4-.4-2l8.4-3.4c.7 1.6 1 3.4 1 5.3 0 7.9-6.4 14.4-14.3 14.4z"/><path d="M686.5 240c-1.7 0-3.1 1.4-3.1 3.1 0 1.7 1.4 3.1 3.1 3.1 1.7 0 3.1-1.4 3.1-3.1 0-1.7-1.4-3.1-3.1-3.1zm0 5c-1 0-1.9-.8-1.9-1.9s.8-1.9 1.9-1.9c1 0 1.9.8 1.9 1.9s-.9 1.9-1.9 1.9z"/></g><path d="M751.6 418.5c0 8-3.3 15-8.1 20.7-5.7 6.8-22.4 24-22.4 24s-18.2-18.6-23.8-25.6c-4.2-5.2-6.7-11.9-6.7-19.1 0-16.8 13.7-30.5 30.5-30.5s30.5 13.7 30.5 30.5z"/><path fill="#FFF" d="M732.2 415c.1 2.8.5 5.7.2 8.5-.2 1.7-.2 3.4-.2 5.1 0 2.2-.5 1.5-2.8 1.4h-3.8c.5 0 .2-3.1.2-3.8 0-.7.8-6.1-1-6-1.3.1-6.2-.7-6.7 1-.3 1.2.8 8.8-1.1 8.8-1.3 0-5.6.7-5.7-.7 0-1.4-.1-2.8-.1-4.2 0-3.4.1-6.8.1-10.2 0-1-1.5-1-1.5 0 0 1.9-1.6 16.6 1.5 16.6 2.3 0 5 .4 7.3-.2 1.1-.3.8-2.8.9-3.5.1-1.8.1-3.7.1-5.5 0-1-.6-.4.2-.4 1.4-.1 2.8-.1 4.2-.2.9 0 .3-.6.3.1v3.5c0 1.7.2 3.4 0 5.1-.2 2 6.3 1.1 7.5 1.1 3.1 0 2-4 2-6.2 0-3.4.1-6.8 0-10.3-.1-1-1.6-1-1.6 0z"/><path fill="#FFF" d="M707.6 418c2.1-1.9 5.2-4 5.2-6.9V406c0-.8-1.1.2.1.1 1.1 0 2.2-.1 3.3-.1-.5-.7-.7-.6-.5.3v2c0 .7.8 1 1.3.5 1.7-1.5 3.5-3.1 5.2-4.6-.9-.2-1.1-.1-.6.2.5.5 1 .9 1.4 1.4l3.3 3.3c3 3 6 6 9.1 8.9.7.7 1.8-.4 1.1-1.1-4.8-4.5-9.5-9.2-14.1-13.9-.3-.3-.8-.3-1.1 0-1.8 1.6-3.6 3.1-5.3 4.7.4.2.9.4 1.3.5v-3.1c0-.4-.3-.8-.8-.8-1.5 0-2.9.1-4.4.1-.4 0-.7.3-.8.8 0 2.3 0 4.5-.1 6.8 0 .6-3.7 3.8-4.8 4.8-.6.8.5 1.9 1.2 1.2z"/><path d="M896.6 418.5c0 8-3.3 15-8.1 20.7-5.7 6.8-22.4 24-22.4 24s-18.2-18.6-23.8-25.6c-4.2-5.2-6.7-11.9-6.7-19.1 0-16.8 13.7-30.5 30.5-30.5s30.5 13.7 30.5 30.5z"/><path fill="#FFF" d="M860 413.3c2 0 2-2 0-2s-2 2 0 2c0 0-2 0 0 0zm4.9.2l4.2-.3c1.2-.1 2.6.2 3.8.3 1.4.1 1.4-2.1 0-2.2-1.2-.1-2.6-.4-3.8-.3l-4.2.3c-1.4.1-1.4 2.3 0 2.2zm-5.2 6c.3 0 .7.1 1 .1.6 0 1.1-.5 1.1-1.1 0-.7-.5-1.1-1.1-1.1-.3 0-.7-.1-1-.1-.6 0-1.1.5-1.1 1.1 0 .6.5 1 1.1 1.1zm5.2.1c2.7 0 5.3 0 8-.1 1.5 0 1.5-2.3 0-2.2-2.7 0-5.3 0-8 .1-1.4 0-1.4 2.2 0 2.2zm-5.2 6.9c.3 0 .7 0 1 .1.6 0 1.1-.5 1.1-1.1 0-.6-.5-1.1-1.1-1.1-.3 0-.7 0-1-.1-.6 0-1.1.5-1.1 1.1 0 .6.5 1 1.1 1.1zm5.5.3h8c1 0 1-2 0-2h-8c-2 0-2 2 0 2 0 0-2 0 0 0z"/><path fill="#FFF" d="M877.1 407.1c.1 6.8.3 13.5.4 20.3 0 1.6.2 3.5-1.8 3.5h-8.3c-1.7 0-12 1-12-1.1 0-1.8-.8-23.7 1.2-23.6 7.2 0 14.4.1 21.7.2 1 0 1-1.5 0-1.5-4.5 0-9-.1-13.5-.1-2 0-9.2-1.3-10.5 1-.8 1.5-.3 4.4-.3 6v5.8c0 4.3-.6 9.1 0 13.3.5 3 8.2 1.6 10 1.6 2 0 13.9 1.5 14.7-.9 1-2.9.4-6.9.3-10l-.3-14.4c-.1-1-1.6-1-1.6-.1z"/><path d="M1040.6 418.5c0 8-3.3 15-8.1 20.7-5.7 6.8-22.4 24-22.4 24s-18.2-18.6-23.8-25.6c-4.2-5.2-6.7-11.9-6.7-19.1 0-16.8 13.7-30.5 30.5-30.5s30.5 13.7 30.5 30.5z"/><path fill="#FFF" d="M1025.2 416.4l-5.2 1.1-8.4-.7h-12.4v-4h26z"/><path fill="#FFF" d="M1021 424.3c0 1.7-.2 3-.2 4.7v.2c0 .1 0 .1-.1.2-1.1 2.6-6.3 1.4-8.5 1.4-5.2 0-10.4 0-15.6-.1-2.8 0-3.5-.7-3.5-3.6 0-4.1-.7-8.9.1-12.9.3-1.8 2.9-1.9 5.1-1.8l.1 1.6c-2.2.1-3.7.1-3.7.3v11.9c0 3.5.5 3 3.8 3h12.8c1.3 0 7.2.9 8.1-.4 0-1.6-.3-1.9-.3-3.5l1.9-1z"/><path fill="#FFF" d="M1024.4 423.6c-.6 1.5-6.8.6-8.1.6-4.3 0-8.5.1-12.8.1-3.3 0-3.8.5-3.8-3 0-4-.1-7.9-.1-11.9 0-.6 19.7-.4 21.6-.4 3.5 0 3.1.3 3.1 3.8 0 3.7 0 7.4.1 11.1 0 1 1.5.8 1.5-.1 0-4.5-.1-8.9-.1-13.4 0-3-1.6-3-4.1-2.9-5.3 0-10.6.1-15.9.1-1.8 0-7.1-1.1-7.6 1.7-.7 4 0 8.8.1 12.9 0 2.9.7 3.6 3.5 3.6 5.2 0 10.4-.1 15.6-.1 2.2 0 7.4 1.1 8.5-1.5.3-.8-1.1-1.5-1.5-.6z"/><path d="M484.4 239.2c-9.4.1-18.9.1-28.3.1-.5 0-.9.4-.9.9 0 4.5-.7 9.4 1.5 13.5 2.6 4.9 8.5 4.4 13.2 4.4 4.4 0 10.1.7 13.1-3.2 3.1-4 2.1-9.6 2.1-14.4 0-1.2-1.8-1.2-1.8 0v7.9c0 6-4.7 7.9-9.8 7.9h-8.6c-7.5 0-7.9-7-7.9-12.5v-2.6c0-1.7.2-.2-.8-.2h3.5c3.3 0 6.6.1 9.9.1 4.9 0 9.9-.1 14.9-.2 1.1.1 1.1-1.7-.1-1.7z"/><path d="M465.4 243.6v-6.9c0-2.9 2.8-3.9 5.2-4 2.1-.1 4.4.8 5.1 2.8.3.8.1 1.9.1 2.7v5.3c0 1.2 1.8 1.2 1.8 0v-6.8c0-3.7-3-5.5-6.4-5.8-3.8-.4-7.5 1.8-7.7 5.8-.1 2.3 0 4.6 0 6.8.1 1.3 1.9 1.3 1.9.1zm518.7-.6c.1 2.8.5 5.7.2 8.5-.2 1.7-.2 3.4-.2 5.1 0 2.2-.5 1.5-2.8 1.4h-3.8c.5 0 .2-3.1.2-3.8 0-.7.8-6.1-1-6-1.3.1-6.2-.7-6.7 1-.3 1.2.8 8.8-1.1 8.8-1.3 0-5.6.7-5.7-.7 0-1.4-.1-2.8-.1-4.2 0-3.4.1-6.8.1-10.2 0-1-1.5-1-1.5 0 0 1.9-1.6 16.6 1.5 16.6 2.3 0 5 .4 7.3-.2 1.1-.3.8-2.8.9-3.5.1-1.8.1-3.7.1-5.5 0-1-.6-.4.2-.4 1.4-.1 2.8-.1 4.2-.2.9 0 .3-.6.3.1v3.5c0 1.7.2 3.4 0 5.1-.2 2 6.3 1.1 7.5 1.1 3.1 0 2-4 2-6.2 0-3.4.1-6.8 0-10.3-.1-1-1.6-1-1.6 0z"/><path d="M959.5 246c2.1-1.9 5.2-4 5.2-6.9V234c0-.8-1.1.2.1.1 1.1 0 2.2-.1 3.3-.1-.5-.7-.7-.6-.5.3v2c0 .7.8.9 1.3.5 1.7-1.5 3.5-3.1 5.2-4.6-.9-.2-1.1-.1-.6.2.5.5 1 .9 1.4 1.4l3.3 3.3c3 3 6 6 9.1 8.9.7.7 1.8-.4 1.1-1.1-4.8-4.5-9.5-9.2-14.1-13.9-.3-.3-.8-.3-1.1 0-1.8 1.6-3.6 3.1-5.3 4.7.4.2.9.4 1.3.5v-3.1c0-.4-.3-.8-.8-.8-1.5.1-2.9.1-4.4.1-.4 0-.7.3-.8.8v6.8c0 .6-3.7 3.8-4.8 4.8-.6.8.4 1.9 1.1 1.2zm173.7-4.5l-5.3 1.1-8.4-.8h-12.3v-4h26z"/><path d="M1128.6 249.2c0 1.6-.2 2.9-.2 4.5v.2c0 .1 0 .1-.1.2-1.1 2.5-6.1 1.4-8.2 1.4-5 0-10.1 0-15.1-.1-2.8 0-3.4-.7-3.4-3.5 0-3.9-.7-8.6.1-12.5.3-1.8 2.8-1.9 4.9-1.7l.1 1.6c-2.1 0-3.6.1-3.6.3v11.5c0 3.3.5 2.9 3.7 2.9h12.4c1.2 0 7 .8 7.8-.4 0-1.5-.3-1.9-.3-3.4l1.9-1z"/><path d="M1131.9 248.5c-.6 1.4-6.6.6-7.9.6-4.1 0-8.3.1-12.4.1-3.2 0-3.7.5-3.7-2.9 0-3.8-.1-7.7-.1-11.5 0-.6 19.1-.4 20.9-.4 3.3 0 3 .3 3 3.7 0 3.6 0 7.2.1 10.8 0 .9 1.5.8 1.4-.1 0-4.3-.1-8.6-.1-13 0-2.9-1.5-2.9-4-2.8-5.1 0-10.3.1-15.4.1-1.7 0-6.9-1-7.4 1.6-.7 3.9 0 8.6.1 12.5 0 2.8.7 3.5 3.4 3.5 5 0 10.1-.1 15.1-.1 2.1 0 7.2 1.1 8.2-1.4.5-.9-.8-1.6-1.2-.7zm-90.9-7.2c2 0 2-2 0-2s-2 2 0 2c0 0-2 0 0 0zm4.8-.1c1.4-.1 2.8-.2 4.2-.2 1.2-.1 2.6.2 3.8.2 1.4.1 1.4-1.6 0-1.7-1.2-.1-2.6-.3-3.8-.2-1.4.1-2.8.2-4.2.2-1.4.1-1.4 1.8 0 1.7zm-5.1 6c.3 0 .7 0 1 .1.6 0 1.1-.4 1.1-.9s-.5-.8-1.1-.9c-.3 0-.7 0-1-.1-.6 0-1.1.4-1.1.9-.1.6.4.9 1.1.9zm5.1.1h8c1.5 0 1.5-1.8 0-1.8h-8c-1.4.1-1.4 1.9 0 1.8zm-5.1 7.2c.3 0 .7 0 1 .1.6 0 1.1-.5 1.1-1.1 0-.6-.5-1.1-1.1-1.1-.3 0-.7 0-1-.1-.6 0-1.1.5-1.1 1.1-.1.6.4 1 1.1 1.1zm8 .3h5.3c1 0 1.3-2.2-.4-2.2-3 0-4.5.3-7.6.1-2-.1-2 2.1 0 2.1h2.7z"/><path d="M1057.3 235.7c.1 7.2.3 14.5.4 21.7.1 2.9-7.6 1.7-9.3 1.7-1.3 0-12.2 1.1-12.2-1.3v-22.5c0-2.9 7.6-1.7 9.3-1.7 2.1 0 11.5-1.5 12.2 1.4.3.9 1.7.5 1.4-.4-1.1-3.9-6.7-2.6-9.8-2.6h-9.1c-1.2 0-3-.3-4.2.4-2.6 1.5-1.4 8.1-1.4 10.5v14.9c0 4 6.6 2.8 8.9 2.8 4.4 0 9.8.9 14.1-.3 2.8-.8 1.4-8 1.4-9.7l-.3-14.9c.1-.9-1.4-.9-1.4 0z"/><path fill="#369" d="M753.613 606.916c-.412.274-.823.41-1.234.548a3.65 3.65 0 0 1-1.65.41 6.07 6.07 0 0 1-1.78-.273c-.41-.27-.55-.54-.55-1.09 0-.682.134-1.093.41-1.51.272-.41.683-.68 1.232-.82a27.01 27.01 0 0 1 2.054-.41c.685-.14 2.056-.272 2.193-.272s.274-.136.274.41c0 .14-.41 1.783-.55 2.606l-.41.41zm5.344-11.374c-1.096-.686-3.015-.96-5.344-.96-1.234 0-2.467.137-3.7.274-.96.138-.96.138-1.508.275-1.096.28-1.37 1.37-1.37 1.37l-.41 1.51c-.275.96.41.96.547.83.548-.136.822-.274 1.78-.55a11.22 11.22 0 0 1 2.88-.41c1.232 0 2.192.137 2.74.41.548.275.96.687.96 1.37v.41c0 .14-.138.276-.412.276-1.782.138-3.015.275-4.522.41-1.508.276-2.74.55-3.837 1.098-1.09.55-2.05 1.236-2.6 2.058-.55.824-.82 1.92-.82 3.154s.41 2.19 1.237 2.878c.82.688 1.92 1.1 3.15 1.1.824 0 1.51 0 1.92-.137.41-.138.96-.275 1.508-.55.41-.136.823-.41 1.234-.685.41-.274.684-.548 1.095-.822l-.138.548c-.138.55.274 1.098.822 1.098h2.74c.55-.137 1.1-.55 1.236-1.097l2.19-9.595c0-.274.14-.55.14-.822v-.684c.273-1.1-.275-2.195-1.508-2.74"/><g transform="matrix(1.37037 0 0 -1.37037 2 77.966)"><defs><path id="a" d="M333.2-433.5h387.9v99.4H333.2z"/></defs><clipPath id="b"><use xlink:href="#a" overflow="visible"/></clipPath><g clip-path="url(#b)"><path fill="#1C3664" d="M524.582-377.072c-.5 0-1.1-.4-1.4-.8 0 0-3.2-5.4-3.5-6-.2-.3-.3-.1-.4 0 0 .1-1 5.9-1 5.9-.1.5-.6.9-1.2.9h-2c-.5 0-.8-.4-.7-.8 0 0 1.5-8.6 1.8-10.6.1-1.1 0-1.3 0-1.3l-2-3.4c-.3-.5-.1-.8.3-.8h2.3c.5 0 1.1.4 1.4.8l8.8 14.9s.8 1.3.1 1.3c-.3-.1-2.5-.1-2.5-.1m-22.945 1.346c-.3.5-.7 1-1.2 1.3-.5.3-1.2.6-1.9.7-.7.1-1.6.2-2.6.2h-4.6c-.5 0-.9-.4-1.1-.8l-3.1-13.5c-.1-.5.2-.8.7-.8h2.2c.5 0 1 .4 1.1.8l.8 3.3c.1.5.6.8 1.1.8h.6c2.7 0 4.8.6 6.3 1.7s2.3 2.6 2.3 4.4c-.2.7-.3 1.4-.6 1.9m-4.8-4.4c-.7-.5-1.6-.7-2.8-.7h-.5c-.5 0-.8.4-.7.8l.7 2.9c.1.5.6.8 1.1.8h.7c.8 0 1.5-.1 1.9-.4.4-.3.6-.7.6-1.3 0-.9-.3-1.6-1-2.1"/></g></g><path fill="#369" d="M744.34 592.895c-.41-.685-.96-1.37-1.644-1.78-.685-.412-1.644-.823-2.604-.96a25.166 25.166 0 0 0-3.563-.274h-6.31c-.688 0-1.237.55-1.51 1.1l-4.25 18.5c-.137.69.274 1.1.96 1.1h3.014c.685 0 1.234-.55 1.51-1.094l1.095-4.522c.137-.684.822-1.096 1.507-1.096h.822c3.7 0 6.576-.822 8.632-2.33 2.055-1.507 3.15-3.562 3.15-6.03-.273-.96-.41-1.917-.82-2.603m-6.44 6.03c-.96.686-2.193.96-3.837.96h-.685c-.686 0-1.1-.55-.96-1.096l.96-3.978c.137-.684.82-1.095 1.507-1.095h.96c1.097 0 2.056.137 2.604.548.55.41.82.96.82 1.78 0 1.372-.545 2.194-1.37 2.88"/><path fill="#1C3664" d="M698.67 606.877c-.412.274-.823.41-1.234.55a3.65 3.65 0 0 1-1.645.41 6.08 6.08 0 0 1-1.78-.274c-.41-.275-.55-.55-.55-1.097 0-.685.14-1.096.42-1.507.276-.42.687-.69 1.235-.83a27.01 27.01 0 0 1 2.055-.41c.686-.14 2.056-.278 2.193-.278s.274-.137.274.412c0 .136-.41 1.78-.547 2.602l-.41.41zm5.343-11.374c-1.096-.685-3.014-.96-5.344-.96-1.24 0-2.47.138-3.7.275-.96.137-.96.137-1.51.274-1.1.274-1.37 1.37-1.37 1.37l-.41 1.508c-.28.96.41.96.54.822.55-.137.82-.274 1.78-.548s2.055-.41 2.877-.41c1.234 0 2.193.136 2.74.41.55.274.96.685.96 1.37v.412c0 .137-.137.274-.41.274-1.78.137-3.016.274-4.523.548-1.507.274-2.74.548-3.837 1.096-1.094.548-2.054 1.233-2.602 2.056-.55.822-.823 1.918-.823 3.15 0 1.235.412 2.194 1.234 2.88.822.684 1.92 1.096 3.15 1.096.825 0 1.51 0 1.92-.138.41-.137.96-.274 1.508-.548.41-.137.82-.41 1.232-.685.41-.274.685-.548 1.096-.822l-.138.548c-.137.55.274 1.1.822 1.1h2.74c.55-.13 1.097-.55 1.234-1.09l2.194-9.592c0-.273.137-.547.137-.82v-.686c.14-1.232-.41-2.192-1.504-2.877"/><path fill="#369" d="M769.407 590.078h-2.74c-.686 0-1.234.41-1.37 1.096v.137s0 .28-.138.83L761.46 609c-.14.41-.14.685-.14.685-.14.548.27 1.097.82 1.097h2.88c.55 0 1.23-.41 1.37-1.096v-.136l4.11-18.363c0-.686-.41-1.097-1.1-1.097m5.173 3.624h-.55c-.273 0-.547-.137-.684-.274-.137-.14-.274-.414-.274-.825v-1.51h-.41v-.412h.272v-.82h.546v.82h.96v.41h-.96v1.784c0 .137 0 .137.138.274 0 .138.14.138.14.138h.686l.138.41m4.83.07H779v-2.054c0-.136 0-.274-.137-.274 0-.137-.137-.137-.137-.137h-.274c-.137 0-.274 0-.41.137-.138.137-.275.137-.412.274v2.195h-.55v-2.05c0-.135 0-.273-.136-.273 0-.135-.137-.135-.137-.135h-.274c-.137 0-.274 0-.41.137-.138 0-.275.138-.412.275v2.193h-.54v-3.013h.55v.273c.138-.137.275-.274.41-.274.138-.14.275-.14.55-.14.136 0 .41 0 .55.14.135.136.272.136.272.41.137-.137.41-.274.548-.41.138-.138.275-.138.55-.138.273 0 .547.136.684.273.14.136.276.41.276.82l-.136 1.783"/><path d="M260.9 529.2c0-1.4-1.7-2.6-4-3.1v-5s.3-1 1.3-1.2c1-.2.8-.2.8-.2s-1-2.3-2.7-2.9c-1.7-.6-3.7-.7-6.1-.1-2.4.6-2.9.3-3 1.1-.1.8-.1 1.7-.1 1.7h.4s0 1.9-.4 2.8c-.4 1-1.2 3.2-1.2 3.2h.4s1.3-2.2 1.7-3.7c.4-1.4.5-2.3.5-2.3h1.3l2.2 2.5v4c-2.3.5-4 1.7-4 3.1 0 .2 0 .3.1.4h-.1v14h.1v.2c0 1 1 2.1 6.5 2.1 5.7 0 6.5-1.1 6.5-2.1v-14.2h-.1c-.1 0-.1-.1-.1-.3zm366.4-214.1c-.3-2.6-4.7-4.3-10.4-4.3 5.1.1 9.1 1.8 9.4 4.4.3 2.6-3.1 5.2-8 6.6 5.5-1.4 9.3-4.1 9-6.7zm-25.7 3.2c-.3-2.6 3.1-5.2 8-6.6-5.5 1.4-9.4 4.1-9 6.7.3 2.6 4.7 4.3 10.4 4.3-5.1-.1-9-1.8-9.4-4.4z"/><path d="M618.3 313.1v.1s.1 0 .1-.1-.1 0-.1 0zm-9.1.6c.3-.8 1.1-1.3 1.5-1.5-4.8 1.1-8.2 3.6-7.9 5.9.3 2.7 5.6 4.3 11.7 3.6 0 0-2.1-5.4-2.9-7.4-.9-2-2.4-.6-2.4-.6z"/><path d="M625.2 315.4c-.3-2.7-5.6-4.3-11.8-3.6-.9.1-1.7.3-2.5.4.4-.1.8 0 1.6 1 .9 1.2 1.9 4 1.9 4s.4-1.5.8-2.4c.4-.9 1.4-1.4 2.3-1.1s1.4 1.5 1.4 1.5-.5-.6-1.4-.6c-.9.1-1.4.9-1.7 2.2-.3 1.3-.3 4.3-.3 4.3l-1.1.4h.1c6.3-.5 11-3.4 10.7-6.1zm-6.8-1.6c-.3 0-.6-.3-.6-.6s.3-.6.6-.6.6.3.6.6c0 .4-.3.6-.6.6z"/><path d="M618.4 312.8c-.3 0-.5.2-.5.5s.2.5.5.5.5-.2.5-.5c-.1-.3-.3-.5-.5-.5zm0 .7l-.1-.2v.2h-.2v-.6h.4s.2 0 .2.2-.1.2-.1.2l.1.3c0-.1-.3-.1-.3-.1z"/><path opacity=".7" fill="#333" d="M610.7 312.3h.1c0-.1 0 0-.1 0z"/><path d="M683.4 312.6v-.2c-.1.1-.2.1-.3.2-.9.5-1.8.8-2.4.8-.6 0-.9-.3-1-.5-.1-.2-.2-.7.4-1.5.4-.5 1-1 1.7-1.4.6-.3 1.2-.6 1.8-.7l-.1-.2c0-.2-.3-.4-.4-.6 0 .4-.3.8-.3.8l-.1.1h-.1c-.1 0-.2-.1-.4-.2 0 .3-.1.5-.1.5l-.1.1h-.1c-.1-.1-.3-.2-.4-.2 0 .2-.1.4-.1.5v.1h-.1c-.3-.1-.6-.2-.7-.3 0 .4.1.8.1.8v.1h-.4c-.3 0-.5-.1-.7-.1.1.3.3.5.3.5l.2.1-.2.1c-.5.2-.9.3-1.1.4h.4l.4.1-.3.2c-.2.1-.5.3-.6.4.4 0 .7.1.7.1l.2.1-.2.1c-.2.2-.4.4-.5.6.4-.1.8 0 .8 0h.2l-.1.2c-.1.1-.2.3-.2.4.4-.3 1-.4 1-.4h.2v.6c.3-.3.7-.5.7-.6l.2-.1v.2c0 .1 0 .2.1.3.2-.3.6-.7.6-.7l.1-.1v.2c0 .2.1.4.1.6.2-.3.4-.7.4-.7v-.1h.1c.2.1.3.1.4.2-.1-.4-.1-.8-.1-.8z"/><path d="M685.1 309.8c.4.8-.5 1.8-1.7 2.6l.2.1c.1.1.2.2.4.3l.2-.6v-.1h.1c.1 0 .2.1.3.1v-.6h.7c-.2-.3-.2-.4-.3-.5l-.1-.2h1c-.3-.2-.4-.5-.4-.5l-.1-.1h.1c.2 0 .3-.1.4-.2h-.2l-.3-.1.3-.1c.1-.1.4-.3.6-.5-.5.1-.9.2-.9.2l-.2.1.1-.2c0-.1.2-.5.3-.7-.3.2-.5.4-.6.4l-.2.2v-.3c0-.2.1-.4.2-.6-.5.3-1 .7-1 .7l-.1.1-.1-.1c-.1-.1-.1-.3-.1-.4-.3.2-.3.4-.3.4l-.1.2c.2 0 .4-.1.6-.1.8.1 1.1.3 1.2.5zm13.1 9.5c-.3 0-.5.2-.5.5s.2.5.5.5.5-.2.5-.5-.2-.5-.5-.5zm.2.9v-.2c0-.1 0-.1-.1-.1h-.3v.3-.7h.3c.1 0 .2.1.2.2s0 .1-.1.2c.1 0 .1.1.1.1 0 .1-.1.1-.1.2z"/><path d="M698.3 319.6h-.3v.2h.2c.1 0 .2 0 .2-.1s-.1-.1-.1-.1zm-18.3-8.1c-.6.8-.5 1.2-.4 1.5.1.2.4.5 1 .5.7 0 1.6-.3 2.4-.8.1-.1.2-.1.3-.2 1.2-.8 2.1-1.9 1.7-2.6-.1-.2-.4-.5-1-.5-.2 0-.4 0-.6.1l-.1.1v-.1c-.5.1-1.2.4-1.8.7-.5.3-1.1.8-1.5 1.3zm4.8-1.5c.3.5-.6 1.6-1.9 2.4s-2.7 1-3 .4c-.3-.5.6-1.6 1.9-2.4 1.4-.7 2.7-.9 3-.4zm-1.3 3.7v-.1c0-.1 0-.2.1-.3v-.2l-.2.3-.1-.1v.2c.1 0 .1.1.1.1l.1.1z"/><path d="M686.7 316.2c-.2.1-.4.2-1.1.3-.7 0-1.3.3-1.6.7-.3.5-.2 1.2-.1 1.7 0 0 .3-1 .7-1.4.4-.3 1.1-.3 1.1-.3s-1.8 1.7-2.5 3.2c0 0-.4.9-.5 1l-.1.1s0-.9-.1-1.3-.2-1.5-.2-2c.1-.5.4-1.4.6-2 .3-.6.5-1.3.5-2.4v-.9l.3.3.2.3v-.4c0-.2.1-.5.2-.7.2.1.2.3.2.3l.1.5.1-.6v-.6h1.1l-.2-.2c-.1-.1-.2-.3-.3-.4h.1c.4 0 .8-.1.8-.1l.3-.1-.3-.2c-.2-.1-.4-.3-.5-.5.4-.2.8-.5.8-.5l.5-.5-.7.3c-.1 0-.2.1-.2.1.2-.2.5-.5.5-.6l.2-.2h-.3c-.4 0-.8.1-1 .2.1-.3.3-.8.3-.8l.1-.3-.3.2c-.2.1-.5.3-.6.4.1-.3.3-.6.3-.6l.2-.4-.4.2c-.5.2-1 .6-1.2.8v-.6l-.2.1c-.2.2-.4.3-.5.5-.2-.3-.6-.6-.6-.6l-.3-.2.1.3c.1.3-.1.7-.2.9-.2-.1-.5-.3-.5-.3l-.3-.2.1.4c.1.2 0 .4 0 .5-.2-.1-.3-.3-.3-.3l-.1-.2-.1.2c0 .1-.1.4-.1.6-.4-.1-.7-.3-.7-.3l-.2-.1v.2c0 .4 0 .7.1.9h-.1c-.4 0-.8-.2-.8-.2l-.2-.1v.2c.1.3.2.6.3.7-1 .3-1.4.6-1.4.6l-.3.2h.9c-.3.2-.6.5-.6.5l-.2.2h1c-.3.3-.5.7-.5.7l-.1.3.3-.1c.2-.1.5-.1.7-.1-.2.3-.2.7-.2.7l-.1.4.3-.2c.3-.3.8-.4 1-.5v.6l.1.3.2-.3c.2-.3.5-.5.7-.6.1.2.2.4.2.5l.2.4.1-.5c0-.2.3-.5.5-.7v.9l.2-.2c.3-.2.5-.7.6-.9.1.1.3.1.3.2v.9c0 .5-.3 1.1-.5 1.7-.3.6-.6 1.6-.6 2.2 0 .6.1 2.7.1 2.7h-.1s-1.1-3.8-4-4.6c0 0 3.7 3.1 3.7 7.5h1.3s-.1-3 1.7-4.9c0 0 .8.3 1.4-.4s.4-1.3.5-1.7c.1-.4.7-1.3.7-1.3s-.2.4-.5.5zm-3.8-3.1h-.1v.1s-.2.4-.4.7c0-.2 0-.4-.1-.6v-.2l-.1.1c-.1 0-.4.4-.6.7 0-.1-.1-.2-.1-.3v-.2l-.2.1s-.4.2-.7.6v-.6h-.2s-.6.1-1 .4c0-.1.1-.3.2-.4l.2-.2h-1c.1-.2.3-.4.5-.6l.2-.1-.2-.1s-.3-.1-.7-.1c.1-.1.4-.3.6-.4l.3-.2-.4-.1h-.4c.2-.1.6-.3 1.1-.4l.2-.1-.2-.1s-.2-.2-.3-.5c.2.1.4.1.7.1h.4v-.1s-.1-.4-.1-.8c.2.1.4.2.7.3h.1v-.1c0-.1 0-.3.1-.5.1.1.2.2.4.2h.1l.1-.1s.1-.2.1-.5c.1.1.3.2.4.2h.1l.1-.1s.3-.4.3-.8c.2.2.4.4.4.6l.1.2h.1l.1-.2s.1-.2.3-.4c0 .2 0 .4.1.4l.1.1.1-.1s.5-.4 1-.7c-.1.2-.2.4-.2.6v.3l.2-.2.6-.4c-.1.2-.2.6-.3.7l-.1.2.2-.1s.4-.1.9-.2c-.2.2-.4.4-.6.5l-.3.1.3.1h.2c-.1.1-.3.2-.4.2h-.1l.1.1s.1.3.4.5h-1l.1.2s.1.2.3.5h-.7v.6c-.1-.1-.2-.1-.3-.1h-.1v.1l-.2.6c-.1-.1-.2-.2-.4-.3l-.2-.1v.2s0 .4-.1.7c-.4.2-.5.1-.7 0z"/><path d="M683.5 309.4s-.1 0 0 0l-.1.1.1-.1z"/><path d="M683.5 309.4s-.1 0 0 0l-.1.1.1-.1zm-.1 3.1zm0 0zm2.1 7.5c-1.7 0-1.7 1.9-1.7 2.2 0 .3.2 1.3 1.1 1.8.9.4 1.4 0 1.7-.3.3-.3.4-.5.4-.6s-.1-.3-.2-.2c-.1.1-.6.5-.9.6s-.6 0-.7-.1-.3-.4-.3-.6c0-.2-.1-.5-.1-.5h2.3c-.1-.2.1-2.3-1.6-2.3zm.6 1.6h-1.2s-.1-1.1.6-1.1.6 1.1.6 1.1zm4.3 1.8s-.2 0-.2-.2c0-.1.1-.2.2-.3.1-.1.7-.4.7-1.2 0-.7-.8-1.3-.8-1.3s-.1-.1-.1-.2.2-.2.3-.2c.1 0 .3.1.3.1s.3.2.5.2.6-.1.7-.8c0 0-.3.3-.7.2-.4-.1-.7-.2-.9-.1-.3.1-.4.4-.4.5 0 0-.6-.2-1-.1-.4 0-1.2.2-1.6.9-.4.7-.1 1.6.1 1.8.3.2.7.5 1.1.6.5.1 1.2.4 1.4.8.2.4-.1 1-.5 1.2-.4.3-1.1.4-1.5-.2s0-.9.1-.9c.1-.1.3 0 .4.1.1.1.4.4.7.1.2-.3.2-.8-.4-.9-.5-.2-1-.1-1.3.2-.3.4-.6 1.1-.2 1.8s1.2.8 1.8.8c.6 0 1.1-.3 1.5-.8.4-.5.6-1 .3-1.5-.1-.6-.5-.6-.5-.6zm-.8-1.1c0 .3-.3.6-.6.6s-.6-.3-.6-.6v-1.1c0-.3.3-.6.6-.6s.6.3.6.6v1.1z"/><path d="M698.1 323.6c-.2-.1-.3-.1-.3-.4 0-.3.1-1.9.1-1.9s.1-.6-.3-.9-.8-.4-1.1-.3c-.3.1-.6.4-.6.4v-.2s0-.3-.3-.3-.8.3-1 .4c-.2.1-.2.4 0 .5s.2.1.2.2v1.9s0 .4-.4.4-.5-.5-.5-.5l.1-2s.1-.6-.7-.8-1.6 0-1.9.4c-.3.4-.4 1.2.3 1.3.6.1.5-.5.4-.6-.1-.1-.2-.4 0-.6.3-.2.6-.1.8.1.2.2.1.5 0 .7-.1.1-.3.2-.3.2s-.5.3-1.1.5c-.5.2-.7.5-.7.8s.3.8.6.9c.3.1.6.2.9.1.3-.1.4-.1.6-.2s.3 0 .3 0c.1.1.2.2.6.2h2.4v-.3c0-.1-.1-.1-.3-.2-.1-.1-.3-.1-.3-.5v-1.4s0-.7.7-.7c0 0 .4 0 .4.5v1.9s0 .1-.1.2-.3.2-.3.2v.2h1.7v-.2c.2.2.3 0 .1 0zm-5.1-.5c-.3.3-.7.5-.9.3-.3-.2-.3-.5-.1-.7.1-.2 1.2-.5 1.3-.8 0 .1 0 .8-.3 1.2zm-18.7-8.4c0-4.4 3.6-8 8-8s8 3.6 8 8c0 1.6-.5 3.1-1.4 4.5l.3.2c.9-1.4 1.4-3 1.4-4.6 0-4.6-3.7-8.4-8.4-8.4s-8.4 3.7-8.4 8.4c0 4.2 3.1 7.7 7.2 8.3v-.3c-3.7-.7-6.7-4.1-6.7-8.1zm23.9 4.5c-.3 0-.6.3-.6.6s.3.6.6.6.6-.3.6-.6-.3-.6-.6-.6zm0 1.2c-.3 0-.5-.2-.5-.5s.2-.5.5-.5.5.2.5.5-.2.5-.5.5z"/><path opacity=".7" fill="#333" d="M615.7 333.3h.1c0-.1 0 0-.1 0z"/><path fill="none" stroke="#000" stroke-miterlimit="10" d="M1130.1 465c-3.4 0-6.8-2.5-6.8-8.1v-60.4c0-5.6 3.5-8.1 6.8-8.1 1.6 0 3.4.6 5 1.7l30.1 20.5 15.3 8.9c2.7 1.8 4.3 4.4 4.3 7.2s-1.6 5.4-4.3 7.2l-14.3 10.2-16.8 10-14.2 9.2c-1.8 1.1-3.5 1.7-5.1 1.7z"/><path d="M1130.1 461.5c-4.7-.4-3.4-9.5-3.4-12.8V404c0-3.9-1.4-13.4 5-11.8 1.6.4 3.5 2.1 4.8 3 3 2.1 6 4.1 9.1 6.2 5.6 3.8 11.3 7.7 16.9 11.5 4.2 2.8 8.7 5.2 13.1 7.7 3.9 2.2 8.9 6 3.2 10.2-2.2 1.7-4.5 3.2-6.8 4.8-7 5-14.1 9.3-21.5 13.7-2.6 1.5-5.1 3.2-7.6 4.8-3.5 2.3-8.5 7.1-12.8 7.4-4.4.4-4.4 7.3 0 6.9 6.8-.6 12.9-6.1 18.5-9.7 4.4-2.9 8.9-5.5 13.4-8.1 4.4-2.6 8.5-5.4 12.7-8.3 6-4.2 14.3-8.3 13.5-16.9-.7-7.6-9.9-11.1-15.6-14.4-3.6-2.1-7-4.2-10.4-6.5-6.4-4.3-12.7-8.7-19.1-13-4.9-3.3-9.5-7.4-15.9-5.9-7.7 1.8-7.4 10.5-7.4 16.6v50.9c0 7.3 1.5 14.7 10.3 15.4 4.4.3 4.4-6.6 0-7z"/><path fill="#FBB131" d="M908.8 612h.5l.4-.1h.5l.4-.1.4-.1.5-.1.4-.1.4-.2.4-.2.4-.2.3-.2.4-.2.4-.3.3-.2.3-.3.3-.3.3-.3.3-.4.3-.3.2-.3.2-.4.3-.4.2-.4.1-.4.2-.4.1-.4.2-.4.1-.4v-.5l.1-.4v-1.8l-.1-.5v-.4l-.1-.4-.2-.5-.1-.4-.2-.4-.1-.4-.2-.4-.3-.3-.2-.4-.2-.3-.3-.4-.3-.3-.3-.3-.3-.3-.3-.3-.3-.2-.4-.3-.4-.2-.3-.2-.4-.2-.4-.2-.4-.2-.4-.1-.5-.1-.4-.1-.4-.1-.5-.1h-1.8l-.4.1-.5.1-.4.1-.4.1-.4.1-.4.2-.4.2-.4.2-.4.2-.3.2-.4.3-.3.2-.4.3-.3.3-.3.3-.2.3-.3.4-.2.3-.3.4-.2.3-.2.4-.2.4-.1.4-.2.4-.1.5-.1.4-.1.4v.9l-.1.5.1.4v.9l.1.5.1.4.1.4.2.4.1.4.2.4.2.4.2.4.3.4.2.3.3.3.2.4.3.3.3.3.4.3.3.2.4.3.3.2.4.2.4.2.4.2.4.2.4.1.4.1.4.1.5.1h.4l.5.1z"/><path fill="#EC1C2E" d="M896.9 612h.5l.4-.1h.5l.4-.1.4-.1.5-.1.4-.1.4-.2.4-.2.4-.2.3-.2.4-.2.3-.3.4-.2.3-.3.3-.3.3-.3.3-.4.2-.3.3-.3.2-.4.2-.4.2-.4.2-.4.2-.4.1-.4.1-.4.1-.4.1-.5.1-.4v-1.8l-.1-.5-.1-.4-.1-.4-.1-.5-.1-.4-.2-.4-.2-.4-.2-.4-.2-.3-.2-.4-.3-.3-.2-.4-.3-.3-.3-.3-.3-.3-.3-.3-.4-.2-.3-.3-.4-.2-.3-.2-.4-.2-.4-.2-.4-.2-.4-.1-.5-.1-.4-.1-.4-.1-.5-.1H896l-.4.1-.5.1-.4.1-.4.1-.5.1-.4.2-.4.2-.3.2-.4.2-.4.2-.3.3-.4.2-.3.3-.3.3-.3.3-.3.3-.2.4-.3.3-.2.4-.2.3-.2.4-.2.4-.2.4-.1.4-.1.5-.1.4-.1.4-.1.5v1.8l.1.4.1.5.1.4.1.4.1.4.2.4.2.4.2.4.2.4.2.4.3.3.2.3.3.4.3.3.3.3.3.3.4.2.3.3.4.2.4.2.3.2.4.2.4.2.5.1.4.1.4.1.5.1h.4l.5.1z"/><path fill="#FBB131" d="M901.8 597.6h4.8v-.5h-4.4zm-.7 1.1h5.5v-.5h-5.2zm-.5 1.1h6v-.5h-5.8zm-.4 1h6.4v-.5h-6.2zm.2 5.2h6.2v-.5h-6.3zm.5 1.1h5.7v-.5h-5.9zm.6 1.1h5.1v-.5h-5.4zm.9 1h4.2v-.4H902zm-2.4-7.3h6.6v-.5h-6.5zm4 3.1h2.5v-.5h-2.4zm.2-1.1h2.3v-.5h-2.2zm-4.4-.5h.7v.5h-.6z"/><path fill="#FFF" d="M898.6 602.8h-.4l-.1-.1-.1.1h-.4l-.1.1v.1h-.1v.1h.1v.1l.1.1.1.1h.2l.1.1h.2l.1.1h.1l.1.1v.1l.1.1v.6l-.1.2v.1l-.1.1v.1h-.1l-.1.1-.1.1h-.1l-.1.1h-1.6l-.1-.1h-.1l.2-.7v.1h.4l.1.1h.6l.1-.1h.1v-.2h.1v-.1l-.1-.1-.1-.1h-.1l-.1-.1h-.1l-.1-.1h-.1l-.2-.1-.1-.1-.1-.1v-.1l-.1-.1v-.6l.1-.1v-.2l.1-.1h.1v-.1l.1-.1h.1l.1-.1h1.7z"/><path fill="none" stroke="#FFF" stroke-width=".215" d="M898.6 602.8h-.4l-.1-.1-.1.1h-.4l-.1.1v.1h-.1v.1h.1v.1l.1.1.1.1h.2l.1.1h.2l.1.1h.1l.1.1v.1l.1.1v.6l-.1.2v.1l-.1.1v.1h-.1l-.1.1-.1.1h-.1l-.1.1h-1.6l-.1-.1h-.1l.2-.7v.1h.4l.1.1h.6l.1-.1h.1v-.2h.1v-.1l-.1-.1-.1-.1h-.1l-.1-.1h-.1l-.1-.1h-.1l-.2-.1-.1-.1-.1-.1v-.1l-.1-.1v-.6l.1-.1v-.2l.1-.1h.1v-.1l.1-.1h.1l.1-.1h1.7l-.2.7"/><path fill="#FFF" d="M899.3 601.4h.9l-.1.7h.5l-.1.7h-.6l-.3 1.7v.1h.1l.1.1h.4l.1-.1-.1.6h-.1v.1h-1l-.1-.1h-.1l-.1-.1v-.4z"/><path fill="none" stroke="#FFF" stroke-width=".215" d="M899.3 601.4h.9l-.1.7h.5l-.1.7h-.6l-.3 1.7v.1h.1l.1.1h.4l.1-.1-.1.6h-.1v.1h-1l-.1-.1h-.1l-.1-.1v-.4l.5-3.3"/><path fill="#FFF" d="M901.2 603.9v.3l.1.1v.1h.1v.1h.1l.1.1h.2l.1.1h.6l.1-.1h.2l.1-.1h.1l.1-.1-.2.8h-.1l-.1.1h-1.3l-.2-.1h-.1l-.2-.1-.1-.1-.1-.1-.1-.1-.1-.2-.1-.1v-.4l-.1-.2.1-.3v-.4l.1-.2v-.1l.1-.1.1-.1.1-.2.1-.1.1-.1.2-.1h.2l.2-.1h.9l.1.1h.1l.2.1.1.1v.1l.1.1.1.1v1.2H901l.1-.6h1.3v-.3l-.1-.1v-.1h-.1l-.1-.1h-.3l-.1.1h-.1v.1h-.1v.1h-.1v.2l-.1.1z"/><path fill="none" stroke="#FFF" stroke-width=".215" d="M901.2 603.9v.3l.1.1v.1h.1v.1h.1l.1.1h.2l.1.1h.6l.1-.1h.2l.1-.1h.1l.1-.1-.2.8h-.1l-.1.1h-1.3l-.2-.1h-.1l-.2-.1-.1-.1-.1-.1-.1-.1-.1-.2-.1-.1v-.4l-.1-.2.1-.3v-.4l.1-.2v-.1l.1-.1.1-.1.1-.2.1-.1.1-.1.2-.1h.2l.2-.1h.9l.1.1h.1l.2.1.1.1v.1l.1.1.1.1v1.2H901l.1-.6h1.3v-.3l-.1-.1v-.1h-.1l-.1-.1h-.3l-.1.1h-.1v.1h-.1v.1h-.1v.2l-.1.1-.1.6"/><path fill="#FFF" d="M908.4 602.3h-.1v-.1h-.2l-.1-.1h-.9l-.1.1h-.1l-.1.1-.1.1-.1.1-.1.1v.1l-.1.2-.1.2v.9l.1.1.1.1v.1h.1l.1.1h.1l.1.1h.9v-.1h.2v-.1l-.1.8-.1.1h-.1l-.1.1h-1.2l-.1-.1h-.1l-.2-.1-.1-.1-.1-.1-.1-.1-.1-.2-.1-.1-.1-.2v-.2l-.1-.2v-.4l.1-.3v-.3l.1-.1v-.2l.1-.1v-.1l.1-.1v-.1l.1-.1v-.1h.1v-.1l.1-.1h.1v-.1l.1-.1h.1v-.1h.2l.1-.1h.2l.1-.1h1.3v.1h.3v.1z"/><path fill="none" stroke="#FFF" stroke-width=".215" d="M908.4 602.3h-.1v-.1h-.2l-.1-.1h-.9l-.1.1h-.1l-.1.1-.1.1-.1.1-.1.1v.1l-.1.2-.1.2v.9l.1.1.1.1v.1h.1l.1.1h.1l.1.1h.9v-.1h.2v-.1l-.1.8-.1.1h-.1l-.1.1h-1.2l-.1-.1h-.1l-.2-.1-.1-.1-.1-.1-.1-.1-.1-.2-.1-.1-.1-.2v-.2l-.1-.2v-.4l.1-.3v-.3l.1-.1v-.2l.1-.1v-.1l.1-.1v-.1l.1-.1v-.1h.1v-.1l.1-.1h.1v-.1l.1-.1h.1v-.1h.2l.1-.1h.2l.1-.1h1.3v.1h.3v.1l-.1.8"/><path fill="#FFF" d="M915.8 605.3h-.9l.1-.3-.1.1-.1.1h-.1l-.1.1h-.2l-.1.1h-.3l-.2-.1h-.1l-.1-.1-.2-.1v-.1l-.1-.1-.1-.1-.1-.2v-.2l-.1-.2v-.5l.1-.1v-.2l.1-.2v-.1l.1-.1.1-.2.1-.1.1-.1.1-.1.1-.1.1-.1h.1l.1-.1h.1l.1-.1h.5l.1.1h.2l.1.1v.1h.1l.1.1v.1l.2-1.2h.9z"/><path fill="none" stroke="#FFF" stroke-width=".215" d="M915.8 605.3h-.9l.1-.3-.1.1-.1.1h-.1l-.1.1h-.2l-.1.1h-.3l-.2-.1h-.1l-.1-.1-.2-.1v-.1l-.1-.1-.1-.1-.1-.2v-.2l-.1-.2v-.5l.1-.1v-.2l.1-.2v-.1l.1-.1.1-.2.1-.1.1-.1.1-.1.1-.1.1-.1h.1l.1-.1h.1l.1-.1h.5l.1.1h.2l.1.1v.1h.1l.1.1v.1l.2-1.2h.9l-.7 3.9"/><path fill="#FBB131" d="M914.4 604.6h.2l.1-.1h.1v-.1h.1v-.1h.1v-.1l.1-.1v-.1l.1-.1v-.8h-.1v-.1h-.1v-.1h-.1l-.1-.1h-.1l-.1.1h-.1l-.1.1h-.1v.1l-.1.1-.1.1v.2l-.1.1v.6l.1.1v.1l.1.1.1.1z"/><path fill="#FFF" d="M896 604.7l-.1.6h-.8v-.2l.1-.1h-.1v.1h-.1v.1h-.2l-.1.1h-.2l-.1.1h-.4l-.2-.1h-.1l-.1-.1h-.1v-.1h-.1v-.1l-.1-.1v-.2l-.1-.1v-.1l.1-.1v-.4l.1-.1v-.1h.1l.1-.1.1-.1.1-.1h.1l.1-.1h.2l.1-.1h1.1v-.3l-.1-.1-.1-.1h-1.1l-.1.1h-.3l.2-.7h.2v-.1h1.5v.1h.2l.1.1h.1l.1.1v.1l.1.1h.1v.5z"/><path fill="none" stroke="#FFF" stroke-width=".215" d="M896 604.7l-.1.6h-.8v-.2l.1-.1h-.1v.1h-.1v.1h-.2l-.1.1h-.2l-.1.1h-.4l-.2-.1h-.1l-.1-.1h-.1v-.1h-.1v-.1l-.1-.1v-.2l-.1-.1v-.1l.1-.1v-.4l.1-.1v-.1h.1l.1-.1.1-.1.1-.1h.1l.1-.1h.2l.1-.1h1.1v-.3l-.1-.1-.1-.1h-1.1l-.1.1h-.3l.2-.7h.2v-.1h1.5v.1h.2l.1.1h.1l.1.1v.1l.1.1h.1v.5l-.3 1.6"/><path fill="#EC1C2E" d="M895.3 603.9l-.1-.1h-.4v.1h-.3v.1h-.1l-.1.1-.1.1v.4h.1l.1.1h.2l.1-.1h.2v-.1h.1l.1-.1v-.1h.1v-.3z"/><path fill="#FFF" d="M889.7 605.3h-.9l.7-3.9h1.4l.2 2.3 1-2.3h1.4l-.6 3.9h-.9l.6-2.9h-.1l-1.2 2.9h-.9v-.1l-.1-.3v-1.6l-.1-.4v-.5z"/><path fill="none" stroke="#FFF" stroke-width=".215" d="M889.7 605.3h-.9l.7-3.9h1.4l.2 2.3 1-2.3h1.4l-.6 3.9h-.9l.6-2.9h-.1l-1.2 2.9h-.9v-.1l-.1-.3v-1.6l-.1-.4v-.5l-.5 2.9"/><path fill="#FFF" d="M910.9 604.7l-.1.6h-.8v-.3l-.1.1-.1.1h-.1l-.1.1h-.2l-.1.1h-.4l-.1-.1h-.2l-.1-.1h-.1v-.1h-.1v-.1l-.1-.1v-.9l.1-.1v-.1h.1l.1-.1.1-.1.1-.1h.1l.1-.1h.2l.1-.1h1.1v-.3h-.1v-.1l-.1-.1H909l-.1.1h-.3l.2-.7h.2l.1-.1h1.3l.1.1h.2l.1.1h.1l.1.1v.1l.1.1h.1v.5z"/><path fill="#FFF" d="M910.8 605.4v-.1l.1-.6-.2.6h.1v.1-.1z"/><path fill="#FFF" d="M910 605.3v.1h.8v-.1h-.8v.1zm0-.3v.3-.3zm-1.1.4h.5l.1-.1h.1l.1-.1h.1l.1-.1.1-.1-.1.1h-.1l-.1.1h-.1l-.1.1h-.2l-.1.1h-.3v-.1z"/><path fill="#FFF" d="M908.1 604.5v.1l.1.1v.2l.1.1v.1h.1v.1h.1l.1.1h.1l.1.1h.1v-.1h-.2l-.1-.1h-.2v-.1l-.1-.1v-.1h-.1v-.4z"/><path fill="#FFF" d="M909.2 603.3h-.1l-.1.1h-.2l-.1.1h-.1l-.1.1v.1l-.1.1h-.1v.1l-.1.1v.2l-.1.2v.1h.1v-.4l.1-.1v-.1h.1v-.1l.1-.1.1-.1h.1v-.1h.1l.1-.1h.3z"/><path fill="#FFF" d="M909.8 603.3h-.6v.1-.1h.6zm.4 0h.1-.5.5zm.1-.2v.1l-.1.1h.1v-.2zm-.4-.3h.2l.1.1v.1h.1v.1-.1l-.1-.1-.1-.1h-.2zm-1.3.1l.1.1v-.1h.3l.1-.1h.8-1l-.1.1h-.2.1z"/><path fill="#FFF" d="M908.8 602.2l-.2.7h.1l.2-.7h-.1zm1.4-.1h-1.1l-.1.1h-.2.3l.1-.1h1zm1 1v-.5l-.1-.1-.1-.1-.1-.1h-.1l-.1-.1h-.1l-.1-.1h-.3.2l.1.1h.2l.1.1.1.1h.1v.1l.1.1v.1h.1v.4zm-.3 1.6l.3-1.6-.3 1.6z"/><path fill="#FBB131" d="M910.2 603.9h-.1v-.1h-.4v.1h-.3v.1h-.1l-.1.1-.1.1v.4h.1l.1.1h.2l.1-.1h.2l.1-.1h.1v-.1l.1-.1v-.3z"/><g fill="#FFF"><path d="M916.3 604.9v-.1h.1v-.1l.1-.1.1-.1h.3l.1.1h.1v.2h.1v.1h-.1v-.1l-.1-.1-.1-.1h-.3l-.1.1-.1.1v.1z"/><path d="M916.6 604.9v-.2h.2l.1.1v.1h-.1.1v-.1h-.2v.1zm-.3 0v.1l.1.1v.1h.1v.1h.1l.1.1h.1l.1-.1h.1l.1-.1v-.1l.1-.1v-.1h-.1v.2h-.1v.1h-.1v.1h-.3v-.1h-.1v-.1h-.1v-.2z"/><path d="M916.6 604.9v.2h.1v-.1h.1v.1h.1l-.1-.1.1-.1h-.2z"/></g><path fill="none" stroke="#FFF" stroke-width=".215" d="M916.3 604.9v-.1h.1v-.1l.1-.1.1-.1h.3l.1.1h.1v.2h.1v.2l-.1.1v.1l-.1.1h-.1l-.1.1h-.1l-.1-.1h-.1v-.1h-.1v-.1l-.1-.1v-.1"/><path fill="none" stroke="#FFF" stroke-width=".215" d="M916.7 605.1h-.1v-.4h.2l.1.1v.1l-.1.1.1.1h-.1v-.1h-.1v.1"/><path fill="none" stroke="#FFF" stroke-width=".215" d="M916.8 604.9h.1v-.1h-.2v.1h.1"/><path fill="none" stroke="#FFF" stroke-width=".215" d="M916.8 605.3h.1v-.1h.1v-.1h.1v-.3l-.1-.1-.1-.1h-.3l-.1.1-.1.1v.3h.1v.1h.1v.1h.2"/><path fill="#FFF" d="M911.1 605.3h.8l.4-1.7v-.2l.1-.1v-.1l.1-.1.1-.1h.1v-.1h.5l.2-.8h-.4v.1h-.1l-.1.1h-.1l-.1.1-.1.1v.1l-.1.1.1-.6h-.8z"/><path fill="none" stroke="#FFF" stroke-width=".215" d="M911.1 605.3h.8l.4-1.7v-.2l.1-.1v-.1l.1-.1.1-.1h.1v-.1h.5l.2-.8h-.4v.1h-.1l-.1.1h-.1l-.1.1-.1.1v.1l-.1.1.1-.6h-.8l-.6 3.2"/><path fill="#FFF" d="M903.2 605.3h.8l.3-1.7v-.2h.1v-.1l.1-.1v-.1h.1l.1-.1h.1l.1-.1h.3v-.1h.1v-.3l.1-.1v-.1l.1-.1v-.1h-.4l-.1.1h-.2v.1h-.1v.1h-.1v.1l-.1.1v.1l.1-.6h-.9z"/><path fill="none" stroke="#FFF" stroke-width=".215" d="M903.2 605.3h.8l.3-1.7v-.2h.1v-.1l.1-.1v-.1h.1l.1-.1h.1l.1-.1h.3v-.1h.1v-.3l.1-.1v-.1l.1-.1v-.1h-.4l-.1.1h-.2v.1h-.1v.1h-.1v.1l-.1.1v.1l.1-.6h-.9l-.5 3.2"/><g fill="#FBB131"><path d="M916.3 608.5l.1-.1v-.1h.1v-.1h.5l.1.1v.1l.1.1h-.1v-.1h-.1v-.1h-.1v-.1h-.3v.1h-.1v.1h-.1v.1z"/><path d="M916.6 608.5v-.1h.3v.1l-.1-.1h-.1v.1zm-.3.1v-.1h.1v.1zm.3 0v-.1h.3v.1zm.5 0v-.1h.1v.1zm-.8 0v.1h.1v.1l.1.1.1.1h.3l.1-.1h.1v-.2h.1v-.1h-.1v.1l-.1.1-.1.1h-.3l-.1-.1-.1-.1v-.1z"/><path d="M916.6 608.6v.1h.1v-.1h.1v.1h.1l-.1-.1h.1z"/></g><path fill="#00589F" d="M825.7 608.8l1.7-9.8h2.6l-1.6 9.8zm12.3-9.5c-.5-.2-1.3-.4-2.4-.4-2.6 0-4.5 1.3-4.5 3.2 0 1.4 1.3 2.2 2.3 2.6 1 .5 1.4.8 1.4 1.2 0 .7-.8 1-1.6 1-1.1 0-1.6-.1-2.5-.5l-.3-.2-.4 2.2c.6.3 1.8.5 3 .5 2.8 0 4.6-1.3 4.6-3.3 0-1.1-.7-2-2.2-2.6-.9-.5-1.5-.8-1.5-1.2 0-.4.5-.8 1.5-.8.9 0 1.5.2 2 .4l.2.1.4-2.2m6.8-.3h-2c-.6 0-1.1.2-1.4.8l-3.9 8.9h2.8s.5-1.2.6-1.5h3.4c.1.3.3 1.5.3 1.5h2.5l-2.3-9.7m-3.3 6.3c.2-.6 1.1-2.7 1.1-2.7s.2-.6.4-.9l.2.8s.5 2.3.6 2.8h-2.3zm-18-6.3l-2.6 6.6-.3-1.3c-.5-1.6-2-3.2-3.7-4.1l2.4 8.5h2.8l4.2-9.7h-2.8"/><path fill="#F9A51A" d="M818.5 599h-4.3v.2c3.3.8 5.5 2.8 6.4 5.1l-.9-4.5c-.2-.6-.7-.7-1.2-.8"/><path fill="#EC1C2E" d="M979.6 612.6h.9l.5-.1h.5l.4-.1.5-.2.4-.1.4-.2.4-.2.4-.2.4-.2.4-.2.3-.3.4-.3.3-.3.4-.3.3-.3.3-.3.2-.4.3-.3.2-.4.3-.4.2-.4.1-.4.2-.4.2-.5.1-.4.1-.5.1-.4v-.5l.1-.5v-.9l-.1-.5v-.4l-.1-.5-.1-.4-.1-.5-.2-.4-.2-.4-.1-.4-.2-.4-.3-.4-.2-.4-.3-.4-.2-.3-.3-.3-.3-.4-.4-.3-.3-.3-.4-.2-.3-.3-.4-.2-.4-.3-.4-.2-.4-.2-.4-.1-.4-.2-.5-.1-.4-.1-.5-.1h-.5l-.4-.1h-1l-.5.1h-.4l-.5.1-.4.1-.5.1-.4.2-.4.1-.4.2-.4.2-.4.3-.4.2-.3.3-.4.2-.3.3-.4.3-.3.4-.2.3-.3.3-.3.4-.2.4-.2.4-.2.4-.2.4-.2.4-.1.4-.2.5-.1.4-.1.5v.9l-.1.5.1.4v1l.1.4.1.5.2.4.1.5.2.4.2.4.2.4.2.4.2.4.3.3.3.4.2.3.3.3.4.3.3.3.4.3.3.3.4.2.4.2.4.2.4.2.4.2.4.1.5.2.4.1h.5l.4.1h.5z"/><path fill="#0084C4" d="M967.3 612.6h1l.4-.1h.5l.4-.1.5-.2.4-.1.4-.2.4-.2.4-.2.4-.2.4-.2.4-.3.3-.3.3-.3.4-.3.3-.3.3-.3.2-.4.3-.3.2-.4.3-.4.2-.4.1-.4.2-.4.2-.5.1-.4.1-.5.1-.4v-.5l.1-.5v-.9l-.1-.5v-.4l-.1-.5-.1-.4-.1-.5-.2-.4-.2-.4-.1-.4-.2-.4-.3-.4-.2-.4-.3-.4-.2-.3-.3-.3-.3-.4-.4-.3-.3-.3-.3-.2-.4-.3-.4-.2-.4-.3-.4-.2-.4-.2-.4-.1-.4-.2-.5-.1-.4-.1-.5-.1h-.4l-.5-.1h-1l-.4.1h-.5l-.5.1-.4.1-.4.1-.5.2-.4.1-.4.2-.4.2-.4.3-.4.2-.3.3-.4.2-.3.3-.3.3-.3.4-.3.3-.3.3-.3.4-.2.4-.2.4-.2.4-.2.4-.2.4-.1.4-.2.5-.1.4-.1.5v.9l-.1.5.1.4v1l.1.4.1.5.2.4.1.5.2.4.2.4.2.4.2.4.2.4.3.3.3.4.3.3.3.3.3.3.3.3.4.3.3.3.4.2.4.2.4.2.4.2.4.2.5.1.4.2.4.1h.5l.5.1h.4z"/><path fill="#EC1C2E" d="M972.3 597.7h4.7v-.6h-4.2zm-.7 1h5.4v-.5h-5.1zm-.6 1.2h6v-.6h-5.7zm-.3 1.1h6.3v-.6h-6.2zm-.3 1.1h6.6v-.6h-6.5zm0 2.1h6.6v-.5h-6.7zm.1 1.1h6.5v-.5h-6.5zm.4 1h6.1v-.5h-6.3zm.4 1.1h5.7v-.5h-5.9zm.7 1.2h5v-.5h-5.4zm.8 1.1h4.2v-.5h-4.6z"/><g fill="#EC1C2E"><path d="M987.3 609.1l.1-.1v-.1l.1-.1.1-.1h.4v.1h.1l.1.1v.2h-.1v-.2h-.1v-.1h-.4l-.1.1v.1l-.1.1z"/><path d="M987.6 609.1v-.2h.3v.1h.1v.1h-.1v-.1h-.2v.1zm-.3 0h.1zm.3 0h.4zm.6 0h-.1.1zm-.9 0v.1l.1.1v.1l.1.1.1.1h.4v-.1h.1l.1-.1v-.3l-.1.1v.2h-.1v.1h-.4l-.1-.1v-.1l-.1-.1v-.1z"/><path d="M987.6 609.1v.2h.1v-.1h.1l.1.1h.1l-.1-.1v-.1h.1z"/></g><path fill="#FFF" d="M977.6 602.6h-.3v-.1h-1l-.1.1h-.2v.1h-.1v.4l.1.1.1.1h.1l.1.1h.1l.1.1h.2l.1.1h.2l.1.1.1.1.1.1.1.2.1.1v.2l.1.2-.1.3v.4l-.1.2-.1.1-.1.1-.1.2h-.1l-.2.1-.1.1h-.2l-.1.1h-.2l-.1.1h-1.3l-.1-.1h-.6v-.1h-.2l.2-1h.1l.1.1h.3l.1.1h1.2l.1-.1h.1v-.2h.1v-.3l-.1-.1-.1-.1-.1-.1h-.1l-.1-.1h-.3l-.1-.1h-.1v-.1h-.1l-.1-.1h-.1l-.1-.1-.1-.1v-.1l-.1-.1v-.1l-.1-.1v-.8l.1-.1v-.2l.1-.1v-.1h.1v-.1h.1v-.1h.1v-.1h.1l.1-.1h.1l.1-.1h.4l.1-.1h1.5l.1.1h.3z"/><path fill="none" stroke="#FFF" stroke-width=".215" d="M977.6 602.6h-.3v-.1h-1l-.1.1h-.2v.1h-.1v.4l.1.1.1.1h.1l.1.1h.1l.1.1h.2l.1.1h.2l.1.1.1.1.1.1.1.2.1.1v.2l.1.2-.1.3v.4l-.1.2-.1.1-.1.1-.1.2h-.1l-.2.1-.1.1h-.2l-.1.1h-.2l-.1.1h-1.3l-.1-.1h-.6v-.1h-.2l.2-1h.1l.1.1h.3l.1.1h1.2l.1-.1h.1v-.2h.1v-.3l-.1-.1-.1-.1-.1-.1h-.1l-.1-.1h-.3l-.1-.1h-.1v-.1h-.1l-.1-.1h-.1l-.1-.1-.1-.1v-.1l-.1-.1v-.1l-.1-.1v-.8l.1-.1v-.2l.1-.1v-.1h.1v-.1h.1v-.1h.1v-.1h.1l.1-.1h.1l.1-.1h.4l.1-.1h1.5l.1.1h.3l-.2 1"/><path fill="#FFF" d="M978.6 600.5h1.2l-.2 1.1h.8l-.2 1h-.8l-.4 2.4v.2h.1v.1h.9l-.2.8h-.1v.1h-.3l-.1.1h-.7l-.2-.1h-.3l-.1-.1h-.1v-.1l-.1-.1v-.6z"/><path fill="none" stroke="#FFF" stroke-width=".215" d="M978.6 600.5h1.2l-.2 1.1h.8l-.2 1h-.8l-.4 2.4v.2h.1v.1h.9l-.2.8h-.1v.1h-.3l-.1.1h-.7l-.2-.1h-.3l-.1-.1h-.1v-.1l-.1-.1v-.6l.8-4.8"/><path fill="#FFF" d="M971.2 604.2l-.1.1v.2l.1.1v.1l.1.1v.1l.1.1.1.1h.1l.1.1h.1v.1h1.3l.1-.1h.3l.1-.1.1-.1h.1l-.2 1v.1h-.2v.1h-.4l-.1.1h-1.1l-.1-.1h-.4l-.1-.1h-.2l-.1-.1h-.1l-.1-.1h-.1l-.1-.1v-.1l-.1-.1-.1-.1h-.1v-.1l-.1-.1-.1-.2v-.2l-.1-.1v-1.4l.1-.1v-.2l.1-.1v-.1l.1-.1v-.1l.1-.1v-.1l.1-.1.1-.1v-.1l.1-.1h.1l.1-.1.1-.1.1-.1h.1l.1-.1h.2l.1-.1h.3l.2-.1h.7l.1.1h.3l.1.1h.1l.1.1.1.1h.1l.1.1v.1h.1l.1.1v.1l.1.1v.2l.1.1v1.1l-.1.2v.3h-3.2l.2-.9h1.9v-.5l-.1-.1-.1-.1-.1-.1-.1-.1h-.6l-.1.1-.1.1h-.1v.1h-.1v.1l-.1.1v.1l-.1.1v.1z"/><path fill="none" stroke="#FFF" stroke-width=".215" d="M971.2 604.2l-.1.1v.2l.1.1v.1l.1.1v.1l.1.1.1.1h.1l.1.1h.1v.1h1.3l.1-.1h.3l.1-.1.1-.1h.1l-.2 1v.1h-.2v.1h-.4l-.1.1h-1.1l-.1-.1h-.4l-.1-.1h-.2l-.1-.1h-.1l-.1-.1h-.1l-.1-.1v-.1l-.1-.1-.1-.1h-.1v-.1l-.1-.1-.1-.2v-.2l-.1-.1v-1.4l.1-.1v-.2l.1-.1v-.1l.1-.1v-.1l.1-.1v-.1l.1-.1.1-.1v-.1l.1-.1h.1l.1-.1.1-.1.1-.1h.1l.1-.1h.2l.1-.1h.3l.2-.1h.7l.1.1h.3l.1.1h.1l.1.1.1.1h.1l.1.1v.1h.1l.1.1v.1l.1.1v.2l.1.1v1.1l-.1.2v.3h-3.2l.2-.9h1.9v-.5l-.1-.1-.1-.1-.1-.1-.1-.1h-.6l-.1.1-.1.1h-.1v.1h-.1v.1l-.1.1v.1l-.1.1v.1l-.1.9"/><path fill="#FFF" d="M969.5 605.3l-.2 1h-1.1v-.4h.1v-.1h-.1v.1l-.1.1h-.1l-.1.1h-.1l-.1.1h-.2l-.1.1h-.4l-.1.1h-.1l-.1-.1h-.3l-.2-.1h-.1l-.1-.1h-.1l-.1-.1v-.1l-.1-.1-.1-.1v-.2l-.1-.1v-.7l.1-.2v-.1l.1-.1.1-.2.1-.1.1-.1.1-.1.1-.1.1-.1h.2l.1-.1.2-.1h.5v-.1h1.3v-.4h-.1v-.2h-.1l-.1-.1h-1.5l-.1.1h-.3l-.1.1h-.1l.3-1 .1-.1h.2l.1-.1h.6l.1-.1h.7l.1.1h.4l.2.1h.1l.1.1h.2l.1.1.1.1.1.1.1.2.1.1v.6z"/><path fill="none" stroke="#FFF" stroke-width=".215" d="M969.5 605.3l-.2 1h-1.1v-.4h.1v-.1h-.1v.1l-.1.1h-.1l-.1.1h-.1l-.1.1h-.2l-.1.1h-.4l-.1.1h-.1l-.1-.1h-.3l-.2-.1h-.1l-.1-.1h-.1l-.1-.1v-.1l-.1-.1-.1-.1v-.2l-.1-.1v-.7l.1-.2v-.1l.1-.1.1-.2.1-.1.1-.1.1-.1.1-.1.1-.1h.2l.1-.1.2-.1h.5v-.1h1.3v-.4h-.1v-.2h-.1l-.1-.1h-1.5l-.1.1h-.3l-.1.1h-.1l.3-1 .1-.1h.2l.1-.1h.6l.1-.1h.7l.1.1h.4l.2.1h.1l.1.1h.2l.1.1.1.1.1.1.1.2.1.1v.6l-.4 2.3"/><path fill="#0084C4" d="M968.4 604.2v-.1h-.7v.1h-.3v.1h-.2l-.1.1-.1.1-.1.1v.6h.1v.1h.7l.1-.1h.2v-.1h.1v-.1h.1v-.1l.1-.1v-.2l.1-.1v-.3z"/><path fill="#FFF" d="M960.3 606.3h-1.2l1-5.8h2.1l.2 3.5 1.4-3.5h2.1l-1 5.8h-1.2l.8-4.3h-.1l-1.7 4.3h-1.4v-1.4l-.1-.7v-.8l-.1-.7v-.7h-.1z"/><path fill="none" stroke="#FFF" stroke-width=".215" d="M960.3 606.3h-1.2l1-5.8h2.1l.2 3.5 1.4-3.5h2.1l-1 5.8h-1.2l.8-4.3h-.1l-1.7 4.3h-1.4v-1.4l-.1-.7v-.8l-.1-.7v-.7h-.1l-.7 4.3"/><path fill="#FFF" d="M980.2 606.3h1.2l.4-2.5v-.1l.1-.1v-.2l.1-.1v-.1l.1-.1.1-.1h.1v-.1h.2l.1-.1h.6v-.3l.1-.1v-.2l.1-.1v-.2l.1-.1v-.1h.1v-.1h-.7v.1h-.1l-.1.1h-.1l-.1.1-.1.1-.1.1-.1.1-.1.1v.1l.1-.8H981z"/><path fill="none" stroke="#FFF" stroke-width=".215" d="M980.2 606.3h1.2l.4-2.5v-.1l.1-.1v-.2l.1-.1v-.1l.1-.1.1-.1h.1v-.1h.2l.1-.1h.6v-.3l.1-.1v-.2l.1-.1v-.2l.1-.1v-.1h.1v-.1h-.7v.1h-.1l-.1.1h-.1l-.1.1-.1.1-.1.1-.1.1-.1.1v.1l.1-.8H981l-.8 4.7"/><path fill="#FFF" d="M985.5 601.6h.8l.1.1h.1l.1.1h.1l.1.1h.1l.1.1.1.1h.1v.1l.1.1.1.1v.1h.1l.1.1v.1l.1.1v.4l.1.1v1l-.1.2v.2l-.1.2v.1l-.1.1v.1l-.1.1-.1.1v.1l-.1.1-.1.1-.1.1h-.1v.1l-.1.1h-.1l-.1.1h-.1l-.1.1h-.3l-.1.1h-.4l-.2.1h-.2l-.1-.1h-.5l-.1-.1h-.2l-.1-.1h-.1l-.1-.1h-.1l-.1-.1-.1-.1h-.1v-.1l-.1-.1-.1-.1v-.1l-.1-.1-.1-.1v-.2l-.1-.1v-.2l-.1-.2v-.8l.1-.1v-.3l.1-.1v-.2l.1-.2v-.1l.1-.1.1-.1v-.1l.1-.1h.1l.1-.1v-.1l.1-.1h.1l.1-.1h.1l.1-.1h.1l.1-.1h.2l.1-.1h.6z"/><path fill="none" stroke="#FFF" stroke-width=".215" d="M985.5 601.6h.8l.1.1h.1l.1.1h.1l.1.1h.1l.1.1.1.1h.1v.1l.1.1.1.1v.1h.1l.1.1v.1l.1.1v.4l.1.1v1l-.1.2v.2l-.1.2v.1l-.1.1v.1l-.1.1-.1.1v.1l-.1.1-.1.1-.1.1h-.1v.1l-.1.1h-.1l-.1.1h-.1l-.1.1h-.3l-.1.1h-.4l-.2.1h-.2l-.1-.1h-.5l-.1-.1h-.2l-.1-.1h-.1l-.1-.1h-.1l-.1-.1-.1-.1h-.1v-.1l-.1-.1-.1-.1v-.1l-.1-.1-.1-.1v-.2l-.1-.1v-.2l-.1-.2v-.8l.1-.1v-.3l.1-.1v-.2l.1-.2v-.1l.1-.1.1-.1v-.1l.1-.1h.1l.1-.1v-.1l.1-.1h.1l.1-.1h.1l.1-.1h.1l.1-.1h.2l.1-.1h.7"/><path fill="#FFF" d="M987.3 606h.4v.1h-.1v.3h-.1v-.3h-.2z"/><path fill="none" stroke="#FFF" stroke-width=".215" d="M987.3 606h.4v.1h-.1v.3h-.1v-.3h-.2v-.1"/><path fill="#FFF" d="M987.7 606h.2l.1.3.1-.3h.1v.4h-.1v-.3l-.1.3h-.1l-.1-.3v.3h-.1z"/><path fill="none" stroke="#FFF" stroke-width=".215" d="M987.7 606h.2l.1.3.1-.3h.1v.4h-.1v-.3l-.1.3h-.1l-.1-.3v.3h-.1v-.4"/><path fill="#EC1C2E" d="M984.5 603.8v.7l.1.1v.1l.1.1v.1h.1v.1h.1l.1.1h.5l.1-.1h.2l.1-.1v-.1l.1-.1.1-.1v-.1l.1-.1v-.1l.1-.2V603l-.1-.1v-.1h-.1v-.1h-.1l-.1-.1h-.5l-.1.1h-.1l-.1.1h-.1l-.1.1v.1l-.1.1-.1.1v.2l-.1.1v.2z"/><g fill="#F2F2F2" opacity=".7"><path d="M247 682.5l1.9-11.3h3.1l-1.9 11.3zm14.3-11c-.6-.2-1.6-.5-2.8-.5-3 0-5.2 1.5-5.2 3.7 0 1.6 1.5 2.5 2.7 3.1 1.2.6 1.6.9 1.6 1.4 0 .8-1 1.1-1.8 1.1-1.2 0-1.9-.2-2.9-.6l-.4-.2-.4 2.5c.7.3 2 .6 3.4.6 3.2 0 5.3-1.5 5.4-3.9 0-1.3-.8-2.3-2.6-3.1-1.1-.5-1.7-.9-1.7-1.4 0-.5.6-1 1.8-1 1 0 1.7.2 2.3.4l.3.1.3-2.2m7.9-.3h-2.4c-.7 0-1.3.2-1.6.9l-4.6 10.4h3.2s.5-1.4.6-1.7h3.9c.1.4.4 1.7.4 1.7h2.9l-2.4-11.3m-3.8 7.3c.3-.7 1.2-3.2 1.2-3.2s.3-.7.4-1.1l.2 1s.6 2.7.7 3.3h-2.5zm-21-7.3l-3 7.7-.3-1.6c-.6-1.8-2.3-3.8-4.3-4.7l2.8 9.9h3.3l4.9-11.3h-3.4"/><path d="M238.6 671.2h-5v.2c3.9.9 6.4 3.2 7.5 5.9l-1.1-5.2c-.2-.6-.7-.8-1.4-.9"/></g><path d="M596.3 672.9l-.8-2-.8 2m19.6-.8c-.2.1-.4.1-.6.1h-1.4v-1.1h1.5c.2 0 .4 0 .6.1.2.1.3.2.3.4-.2.3-.3.4-.4.5zm10.3.8l-.8-2-.8 2h1.6zm-19.3 2.2h-1.2v-3.9l-1.7 3.9h-1l-1.7-3.9v3.9h-2.4l-.5-1.1h-2.5l-.5 1.1h-1.3l2.1-5h1.8l2 4.7v-4.7h1.9l1.6 3.4 1.4-3.4h2v5zm4.9 0h-4v-5h4v1h-2.8v.9h2.7v1h-2.7v1h2.8v1.1zm5.6-3.7c0 .8-.5 1.2-.8 1.3.3.1.5.3.6.4.2.2.2.5.2.9v1h-1.2v-.6c0-.3 0-.7-.2-1-.2-.2-.4-.2-.9-.2h-1.3v1.8H611v-5h2.7c.6 0 1.1 0 1.4.2.5.3.7.7.7 1.2zm1.9 3.7h-1.2v-5h1.2v5zm14.1 0h-1.7l-2.3-3.7v3.7h-2.4l-.4-1.1h-2.5l-.4 1.1h-1.4c-.6 0-1.3-.1-1.7-.6-.4-.4-.6-1-.6-1.9 0-.7.1-1.4.6-2 .4-.4 1-.6 1.8-.6h1.2v1.1h-1.1c-.4 0-.7.1-.9.3-.2.2-.3.6-.3 1.1 0 .5.1.9.3 1.2.2.2.5.3.8.3h.5l1.7-3.9h1.8l2 4.7v-4.7h1.8l2.1 3.5v-3.5h1.2v5h-.1zm-39.4 1h2l.5-1.1h1l.5 1.1h4v-.8l.4.9h2.1l.4-.9v.9h10v-1.8h.2c.1 0 .2 0 .2.2v1.6h5.2v-.4c.4.2 1.1.4 1.9.4h2.2l.5-1.1h1l.5 1.1h4.2V675l.6 1.1h3.3v-7h-3.3v.8l-.5-.8h-3.4v.8l-.4-.8h-4.6c-.8 0-1.4.1-2 .4v-.4h-3.2v.4c-.3-.3-.8-.4-1.3-.4h-11.6l-.8 1.8-.8-1.8h-3.6v.8l-.4-.8h-3.1l-1.4 3.3v3.7h-.3zm42.5 3.6h-2.2c-.2 0-.4 0-.5.1-.1.1-.2.2-.2.4s.1.3.3.4c.1 0 .3.1.5.1h.6c.7 0 1.1.1 1.4.4l.1.1m0 1.8c-.3.4-.9.6-1.6.6H631v-1.1h2.3c.2 0 .4 0 .5-.1.1-.1.1-.2.1-.3 0-.1-.1-.3-.1-.3-.1-.1-.2-.1-.4-.1-1.1 0-2.5 0-2.5-1.5 0-.7.5-1.5 1.7-1.5h2.4v-1h-2.2c-.7 0-1.2.2-1.5.4v-.4H628c-.5 0-1.1.1-1.4.4v-.4h-5.8v.4c-.5-.3-1.2-.4-1.6-.4h-3.8v.4c-.4-.4-1.2-.4-1.7-.4h-4.3l-1 1.1-.9-1.1h-6.4v7h6.3l1-1.1 1 1.1h3.9V683h.4c.5 0 1.1 0 1.7-.2v1.9h3.2v-1.8h.2c.2 0 .2 0 .2.2v1.6h9.7c.6 0 1.3-.2 1.6-.4v.4h3.1c.6 0 1.3-.1 1.7-.3l-.2-1.4zm-4.8-2c.2.2.4.5.4 1.1 0 1.1-.7 1.6-1.9 1.6h-2.3v-1.1h2.3c.2 0 .4 0 .5-.1.1-.1.1-.2.1-.3 0-.1-.1-.3-.1-.3-.1-.1-.2-.1-.4-.1-1.1 0-2.5 0-2.5-1.5 0-.7.5-1.5 1.7-1.5h2.4v1.1h-2.2c-.2 0-.4 0-.5.1-.1.1-.2.2-.2.4s.1.3.3.4c.1 0 .3.1.5.1h.6c.6-.3 1.1-.1 1.3.1zm-10.7-.3c-.2.1-.4.1-.6.1h-1.4v-1.1h1.5c.2 0 .4 0 .6.1.2.1.2.2.2.4s-.2.4-.3.5zm.7.6c.3.1.5.3.6.4.2.2.2.5.2.9v1h-1.2v-.6c0-.3 0-.7-.2-1-.2-.2-.4-.2-.9-.2h-1.3v1.8h-1.2v-5h2.8c.6 0 1 0 1.4.2.4.2.6.5.6 1.1 0 .9-.5 1.3-.8 1.4zm1.5-2.6h4v1h-2.8v.9h2.7v1h-2.7v1h2.8v1h-4v-4.9zm-8.1 2.3H612v-1.3h1.6c.4 0 .7.2.7.6 0 .5-.3.7-.8.7zm-2.7 2.2l-1.8-2 1.8-2v4zm-4.7-.6h-2.9v-1h2.6v-1h-2.6v-.9h3l1.3 1.5-1.4 1.4zm9.5-2.3c0 1.4-1 1.7-2.1 1.7H612v1.7h-2.3l-1.5-1.7-1.5 1.7H602v-5h4.8l1.5 1.6 1.5-1.6h3.8c.9 0 2 .2 2 1.6z" opacity=".7" fill="#FFF"/><path d="M596.3 602.9l-.8-2-.8 2m19.6-.8c-.2.1-.4.1-.6.1h-1.4v-1.1h1.5c.2 0 .4 0 .6.1.2.1.3.2.3.4-.2.3-.3.4-.4.5zm10.3.8l-.8-2-.8 2h1.6zm-19.3 2.2h-1.2v-3.9l-1.7 3.9h-1l-1.7-3.9v3.9h-2.4l-.5-1.1h-2.5l-.5 1.1h-1.3l2.1-5h1.8l2 4.7v-4.7h1.9l1.6 3.4 1.4-3.4h2v5zm4.9 0h-4v-5h4v1h-2.8v.9h2.7v1h-2.7v1h2.8v1.1zm5.6-3.7c0 .8-.5 1.2-.8 1.3.3.1.5.3.6.4.2.2.2.5.2.9v1h-1.2v-.6c0-.3 0-.7-.2-1-.2-.2-.4-.2-.9-.2h-1.3v1.8H611v-5h2.7c.6 0 1.1 0 1.4.2.5.3.7.7.7 1.2zm1.9 3.7h-1.2v-5h1.2v5zm14.1 0h-1.7l-2.3-3.7v3.7h-2.4l-.4-1.1h-2.5l-.4 1.1h-1.4c-.6 0-1.3-.1-1.7-.6-.4-.4-.6-1-.6-1.9 0-.7.1-1.4.6-2 .4-.4 1-.6 1.8-.6h1.2v1.1h-1.1c-.4 0-.7.1-.9.3-.2.2-.3.6-.3 1.1 0 .5.1.9.3 1.2.2.2.5.3.8.3h.5l1.7-3.9h1.8l2 4.7v-4.7h1.8l2.1 3.5v-3.5h1.2v5h-.1zm-39.4 1h2l.5-1.1h1l.5 1.1h4v-.8l.4.9h2.1l.4-.9v.9h10v-1.8h.2c.1 0 .2 0 .2.2v1.6h5.2v-.4c.4.2 1.1.4 1.9.4h2.2l.5-1.1h1l.5 1.1h4.2V605l.6 1.1h3.3v-7h-3.3v.8l-.5-.8h-3.4v.8l-.4-.8h-4.6c-.8 0-1.4.1-2 .4v-.4h-3.2v.4c-.3-.3-.8-.4-1.3-.4h-11.6l-.8 1.8-.8-1.8h-3.6v.8l-.4-.8h-3.1l-1.4 3.3v3.7h-.3zm42.5 3.6h-2.2c-.2 0-.4 0-.5.1-.1.1-.2.2-.2.4s.1.3.3.4c.1 0 .3.1.5.1h.6c.7 0 1.1.1 1.4.4l.1.1m0 1.8c-.3.4-.9.6-1.6.6H631v-1.1h2.3c.2 0 .4 0 .5-.1.1-.1.1-.2.1-.3 0-.1-.1-.3-.1-.3-.1-.1-.2-.1-.4-.1-1.1 0-2.5 0-2.5-1.5 0-.7.5-1.5 1.7-1.5h2.4v-1h-2.2c-.7 0-1.2.2-1.5.4v-.4H628c-.5 0-1.1.1-1.4.4v-.4h-5.8v.4c-.5-.3-1.2-.4-1.6-.4h-3.8v.4c-.4-.4-1.2-.4-1.7-.4h-4.3l-1 1.1-.9-1.1h-6.4v7h6.3l1-1.1 1 1.1h3.9V613h.4c.5 0 1.1 0 1.7-.2v1.9h3.2v-1.8h.2c.2 0 .2 0 .2.2v1.6h9.7c.6 0 1.3-.2 1.6-.4v.4h3.1c.6 0 1.3-.1 1.7-.3l-.2-1.4zm-4.8-2c.2.2.4.5.4 1.1 0 1.1-.7 1.6-1.9 1.6h-2.3v-1.1h2.3c.2 0 .4 0 .5-.1.1-.1.1-.2.1-.3 0-.1-.1-.3-.1-.3-.1-.1-.2-.1-.4-.1-1.1 0-2.5 0-2.5-1.5 0-.7.5-1.5 1.7-1.5h2.4v1.1h-2.2c-.2 0-.4 0-.5.1-.1.1-.2.2-.2.4s.1.3.3.4c.1 0 .3.1.5.1h.6c.6-.3 1.1-.1 1.3.1zm-10.7-.3c-.2.1-.4.1-.6.1h-1.4v-1.1h1.5c.2 0 .4 0 .6.1.2.1.2.2.2.4-.1.3-.2.4-.3.5zm.7.6c.3.1.5.3.6.4.2.2.2.5.2.9v1h-1.2v-.6c0-.3 0-.7-.2-1-.2-.2-.4-.2-.9-.2h-1.3v1.8h-1.2v-5h2.8c.6 0 1 0 1.4.2.4.2.6.5.6 1.1 0 .9-.5 1.3-.8 1.4zm1.5-2.6h4v1h-2.8v.9h2.7v1h-2.7v1h2.8v1h-4v-4.9zm-8.1 2.3H612v-1.3h1.6c.4 0 .7.2.7.6 0 .5-.3.7-.8.7zm-2.7 2.2l-1.8-2 1.8-2v4zm-4.7-.6h-2.9v-1h2.6v-1h-2.6v-.9h3l1.3 1.5-1.4 1.4zm9.5-2.3c0 1.4-1 1.7-2.1 1.7H612v1.7h-2.3l-1.5-1.7-1.5 1.7H602v-5h4.8l1.5 1.6 1.5-1.6h3.8c.9 0 2 .2 2 1.6z"/><g opacity=".7"><path fill="#B2B3B3" d="M485 676.9c0 5.7-4.6 10.3-10.3 10.3-5.7 0-10.3-4.6-10.3-10.3 0-5.7 4.6-10.3 10.3-10.3 5.7 0 10.3 4.6 10.3 10.3z"/><path fill="gray" d="M460.9 666.6c-5.6 0-10.2 4.6-10.2 10.3 0 5.7 4.6 10.3 10.3 10.3 2.7 0 5.1-1 6.9-2.7.4-.3.7-.7 1-1.1h-2.1c-.3-.3-.5-.7-.8-1.1h3.6c.2-.4.4-.7.6-1.1h-4.8c-.2-.4-.3-.7-.4-1.1h5.7c.3-1 .5-2.1.5-3.3 0-.8-.1-1.5-.2-2.2h-6.3c.1-.4.2-.7.3-1.1h5.7c-.1-.4-.3-.7-.4-1.1h-4.8c.2-.4.4-.7.6-1.1h3.6c-.2-.4-.5-.8-.8-1.1h-2c.3-.4.7-.7 1-1-1.9-1.6-4.3-2.6-7-2.6z"/><path d="M464.356 679.794l.1-.9h-.3c-.4 0-.4-.2-.4-.4l.4-1.9h.6l.1-1.1h-.5l.1-.6h-1.2s-.6 3.6-.6 4c0 .6.4.9.9.9.3.2.7.1.8 0z"/><path d="M464.656 678.094c0 1.5 1 1.9 1.9 1.9.8 0 1.2-.2 1.2-.2l.2-1.1s-.7.3-1.2.3c-1.2 0-1-.9-1-.9h2.3s.1-.7.1-1c0-.7-.4-1.6-1.6-1.6-1.1 0-1.9 1.2-1.9 2.6zm1.9-1.6c.6 0 .5.7.5.7h-1.2s.1-.7.7-.7zm7 3.3l.2-1.2s-.5.3-.9.3c-.8 0-1.1-.6-1.1-1.2 0-1.3.7-2 1.4-2 .6 0 1 .3 1 .3l.2-1.2s-.5-.4-1.1-.4c-1.7 0-2.7 1.2-2.7 3.2 0 1.4.7 2.3 2 2.3.4.1 1-.1 1-.1zm-15.2-4.3c-.7 0-1.3.2-1.3.2l-.2.9s.5-.2 1.2-.2c.4 0 .7 0 .7.4v.3h-.5c-1.1 0-1.9.4-1.9 1.6 0 1 .7 1.2 1.1 1.2.8 0 1.1-.5 1.1-.5v.4h1l.4-3c-.1-1.2-1.3-1.3-1.6-1.3zm.1 2.5c0 .2 0 1.1-.7 1.1-.3 0-.4-.3-.4-.4 0-.3.2-.7 1-.7h.1zm2.4 1.9c.2 0 1.7.1 1.7-1.4 0-1.4-1.3-1.1-1.3-1.6 0-.3.2-.4.6-.4h.7l.1-1s-.4-.1-1-.1c-.8 0-1.6.3-1.6 1.4 0 1.3 1.4 1.1 1.4 1.7 0 .4-.4.4-.7.4-.5 0-1-.2-1-.2l-.1 1c0 .1.3.2 1.2.2zm21.7-5.2l-.2 1.5s-.4-.6-1.1-.6c-1.2 0-1.8 1.2-1.8 2.6 0 .9.4 1.8 1.4 1.8.7 0 1-.5 1-.5v.4h1.1l.8-5.2h-1.2zm-.5 2.8c0 .6-.3 1.3-.9 1.3-.4 0-.6-.3-.6-.8 0-.8.4-1.4.9-1.4.4 0 .6.3.6.9zm-29.7 2.4l.7-3.9.1 3.9h.8l1.4-3.9-.6 3.9h1.1l.9-5.2h-1.8l-1.1 3.2v-3.2h-1.6l-.9 5.2h1z"/><path d="M469.256 679.894c.3-1.8.4-3.2 1.4-2.9.1-.7.5-1.3.6-1.6 0 0 0-.1-.3-.1-.5 0-1.1 1-1.1 1l.1-.6h-1l-.7 4.2h1zm6.5-4.4c-.8 0-1.3.2-1.3.2l-.2.9s.5-.2 1.2-.2c.4 0 .7 0 .7.4v.3h-.5c-1.1 0-1.9.4-1.9 1.6 0 1 .7 1.2 1.1 1.2.8 0 1.1-.5 1.1-.5v.4h1l.4-3c-.1-1.2-1.2-1.3-1.6-1.3zm.2 2.5c0 .2 0 1.1-.7 1.1-.3 0-.4-.3-.4-.4 0-.3.2-.7 1-.7h.1zm2.5 1.9c.2-1.3.5-3.2 1.4-2.9.1-.7 0-.7-.3-.7h-.6l.1-.6h-1l-.7 4.2h1.1z"/><path fill="#FFF" d="M464.6 679.5l.1-.9h-.3c-.4 0-.4-.2-.4-.4l.3-1.9h.6l.1-1h-.5l.1-.6h-1.1s-.6 3.6-.6 4c0 .6.4.9.9.9.4 0 .7-.1.8-.1zm.4-1.8c0 1.5 1 1.9 1.9 1.9.8 0 1.2-.2 1.2-.2l.2-1.1s-.6.3-1.2.3c-1.2 0-1-.9-1-.9h2.2s.1-.7.1-1c0-.7-.4-1.6-1.6-1.6-1 .1-1.8 1.3-1.8 2.6zm1.9-1.5c.6 0 .5.7.5.7h-1.2c0-.1.1-.7.7-.7zm6.9 3.3l.2-1.2s-.5.3-.9.3c-.8 0-1.1-.6-1.1-1.2 0-1.3.7-2 1.4-2 .6 0 1 .3 1 .3l.2-1.2s-.7-.3-1.2-.3c-1.3 0-2.5 1.1-2.5 3.2 0 1.4.7 2.3 2 2.3.3-.1.9-.2.9-.2zm-15.2-4.3c-.7 0-1.3.2-1.3.2l-.2.9s.5-.2 1.2-.2c.4 0 .7 0 .7.4v.3h-.5c-.9 0-1.9.4-1.9 1.6 0 1 .7 1.2 1.1 1.2.8 0 1.1-.5 1.1-.5v.4h1l.4-3c-.1-1.3-1.2-1.3-1.6-1.3zm.2 2.5c0 .2-.1 1-.8 1-.3 0-.4-.3-.4-.4 0-.3.2-.7 1-.7.2 0 .2.1.2.1zm2.3 1.9c.2 0 1.7.1 1.7-1.4 0-1.4-1.3-1.1-1.3-1.6 0-.3.2-.4.6-.4h.7l.1-1s-.4-.1-1-.1c-.8 0-1.6.3-1.6 1.4 0 1.3 1.4 1.1 1.4 1.7 0 .4-.4.4-.7.4-.5 0-1-.2-1-.2l-.1 1c0 .1.3.2 1.2.2zm21.7-5.3l-.2 1.5s-.4-.6-1.1-.6c-1 0-1.8 1.2-1.8 2.6 0 .9.4 1.8 1.4 1.8.7 0 1-.5 1-.5v.4h1.1l.8-5.2h-1.2zm-.5 2.9c0 .6-.3 1.3-.9 1.3-.4 0-.6-.3-.6-.8 0-.8.4-1.4.9-1.4.4 0 .6.3.6.9zm-29.6 2.3l.7-3.9.1 3.9h.8l1.4-3.9-.6 3.9h1.1l.9-5.2h-1.7l-1.1 3.2-.1-3.2h-1.6l-.9 5.2h1zm16.8 0c.3-1.8.4-3.3 1.1-3 .1-.7.3-1 .4-1.3h-.2c-.5 0-.9.7-.9.7l.1-.6h-1l-.7 4.2h1.2zm6.806-4.3c-.7 0-1.3.2-1.3.2l-.2.9s.5-.2 1.2-.2c.4 0 .7 0 .7.4v.3h-.5c-.9 0-1.9.4-1.9 1.6 0 1 .7 1.2 1.1 1.2.8 0 1.1-.5 1.1-.5v.4h1l.4-3c-.1-1.3-1.2-1.3-1.6-1.3zm.2 2.5c0 .2-.1 1-.8 1-.3 0-.4-.3-.4-.4 0-.3.2-.7 1-.7.2 0 .2.1.2.1z"/><path fill="#FFF" d="M478.686 679.5c.3-1.8.4-3.3 1.1-3 .1-.7.3-1 .4-1.3h-.2c-.5 0-.9.7-.9.7l.1-.6h-1l-.7 4.2h1.2zm5.214-.6h.2c.1 0 .1.1.1.1v.4c0 .1-.1.1-.1.1h-.4c-.1 0-.1-.1-.1-.1v-.4c0-.1.1-.1.1-.1h.2m0 .1h-.1l-.1.1v.2l.1.1h.2l.1-.1v-.2l-.1-.1h-.1m-.1.4v-.4h.2v.2c0 .1 0 0-.1 0l.1.1v.1-.1s0-.1-.1-.1l-.1.2m0-.2h-.1"/></g><path fill="#F2F2F2" d="M557.513 678.45c-.275.136-.412.273-.686.273-.274.137-.548.137-.822.137-.41 0-.685 0-.96-.137-.273-.137-.273-.274-.273-.685 0-.41.137-.548.274-.822.137-.137.41-.41.685-.548.28-.137.69-.137 1.1-.274.41 0 1.1-.138 1.24-.138.138 0 .138 0 .138.138 0 .137-.273.96-.273 1.37-.274.548-.41.685-.41.685zm2.877-6.305c-.685-.41-1.644-.548-3.015-.548-.685 0-1.37 0-2.055.137-.548.137-.548.137-.822.137-.685.14-.685.83-.685.83l-.275.82c-.137.55.137.55.275.41.274-.132.41-.132.96-.27.547-.136 1.095-.273 1.643-.273.685 0 1.234.137 1.508.274s.548.41.548.82v.275s-.137.135-.274.135c-.96 0-1.645.135-2.467.272-.82.137-1.5.274-2.19.548-.68.275-1.09.687-1.5 1.098-.273.548-.547 1.096-.547 1.78 0 .686.274 1.234.685 1.646.41.41 1.097.55 1.783.55.41 0 .823 0 1.097-.14.274 0 .548-.135.82-.272.276-.135.41-.272.687-.41.274-.137.41-.274.685-.41v.273c-.137.272.137.546.412.683h1.506c.274 0 .685-.274.685-.686l1.234-5.346v-.82c.276-.547 0-1.096-.684-1.507m-21.09-.3c-.413 0-.824.276-1.098.687 0 0-2.464 4.11-2.6 4.522-.138.272-.276.135-.276 0s-.684-4.524-.684-4.524c-.138-.41-.41-.685-.96-.685h-1.507c-.41 0-.55.275-.55.686 0 0 1.097 6.58 1.37 8.086.14.823 0 .96 0 .96l-1.507 2.604c-.274.41-.137.684.275.684h1.78c.41 0 .82-.272 1.096-.683l6.717-11.375s.69-.96 0-.96h-2.06m-17.465-1.16a3.202 3.202 0 0 0-.96-.96c-.41-.27-.957-.41-1.505-.545-.55-.137-1.234-.137-1.92-.137h-3.562c-.41 0-.685.275-.822.686l-2.33 10.277c-.136.41.138.686.55.686h1.645c.41 0 .686-.27.823-.684l.548-2.465c.138-.41.41-.684.823-.684h.55c2.054 0 3.7-.41 4.795-1.234 1.095-.82 1.78-1.917 1.78-3.287a14.22 14.22 0 0 0-.41-1.646m-3.7 3.426c-.55.41-1.234.55-2.056.55h-.41c-.413 0-.55-.273-.55-.684l.55-2.194c.136-.413.41-.687.82-.687h.55c.684 0 1.095.14 1.506.277.274.274.548.55.548.96-.133.82-.41 1.37-.955 1.78m34.22-3.38a3.202 3.202 0 0 0-.96-.96c-.41-.276-.96-.41-1.51-.55-.55-.137-1.23-.137-1.92-.137h-3.56c-.412 0-.686.273-.823.684l-2.327 10.278c-.138.413.136.687.547.687h1.644c.41 0 .686-.277.824-.688l.55-2.466c.136-.41.41-.686.82-.686h.55c2.055 0 3.7-.41 4.795-1.232 1.097-.823 1.782-1.92 1.782-3.29a14.22 14.22 0 0 0-.41-1.644m-3.7 3.426c-.55.41-1.234.55-2.056.55h-.41c-.41 0-.55-.275-.55-.687l.55-2.19c.135-.413.41-.687.82-.687h.55c.684 0 1.095.137 1.506.274.276.276.55.55.55.96-.136.82-.41 1.37-.96 1.78m-21.693 4.39c-.275.137-.41.274-.686.274-.276.137-.55.137-.824.137-.41 0-.686 0-.96-.14-.274-.135-.274-.272-.274-.683 0-.41.14-.55.276-.822.137-.137.41-.41.685-.548.276-.137.687-.137 1.098-.274.41 0 1.097-.134 1.234-.134s.14 0 .14.136-.276.96-.276 1.37c-.138.412-.413.55-.413.686zm2.88-6.304c-.688-.41-1.647-.547-3.018-.547-.684 0-1.37 0-2.054.135-.55.136-.55.136-.824.136-.686.138-.686.823-.686.823l-.135.822c-.138.55.136.55.274.412.273-.14.41-.14.958-.276.55-.135 1.097-.272 1.645-.272.688 0 1.237.14 1.51.277.275.138.55.413.55.824v.272s-.14.138-.276.138c-.96 0-1.647.135-2.47.272-.82.137-1.505.274-2.19.548-.686.275-1.097.686-1.508 1.097-.274.548-.548 1.097-.548 1.782s.272 1.23.683 1.64c.41.41 1.097.547 1.783.547.41 0 .82 0 1.095-.137.274 0 .548-.137.822-.274.273-.136.41-.273.684-.41.273-.137.41-.274.684-.41v.273c-.138.273.136.547.41.684h1.51c.274 0 .685-.273.685-.684l1.232-5.344v-.823c.14-.683-.138-1.23-.82-1.505m36.34-3.097h-1.508c-.41 0-.684.275-.82.55 0 0 0 .137-.137.41l-2.055 9.32c0 .275-.14.41-.14.41-.137.276.137.55.41.687h1.51c.273 0 .684-.273.82-.547l2.194-10.14c.41-.414.135-.688-.277-.688m2.846 2.117h-.276c-.135 0-.27 0-.41-.137-.136-.14-.136-.277-.136-.414v-.82h-.138v-.276h.137v-.41h.272v.41h.55v.276h-.55v.96l.137.136c.14.137.14 0 .14 0h.274v.273m2.77-.073h-.272v-1.232s0-.136-.136-.136h-.416c-.138 0-.138.136-.275.136v1.37h-.273v-1.25s0-.138-.137-.138h-.414c-.136 0-.136.137-.273.137v1.232h-.276v-1.644h.275v.13c.136-.136.136-.136.273-.136h.275c.136 0 .273 0 .273.137.14 0 .14.137.14.137.137-.136.274-.136.274-.136h.276c.137 0 .274 0 .41.138.138.14.138.276.138.41l.138.825" opacity=".7"/><g opacity=".7"><g fill="#FFF"><path d="M402.6 676.5v-2c0-.8.4-1.1 1.2-1 .3 0 .3.2.3.4v8.7c0 .1-.1.3-.2.3-1.3.3-2.6.4-3.9.2-1.4-.2-2.2-1.1-2.4-2.5-.1-.9-.1-1.8.2-2.6.6-1.7 2-2.2 3.6-2 .3.1.7.3 1.2.5zm0 5.5v-3.4c0-.5-.2-.9-.7-1-.4-.1-.9-.2-1.4-.2-.7 0-1.2.4-1.5 1-.3.6-.3 1.3-.2 2 .1 1 .7 1.6 1.7 1.7.7 0 1.4-.1 2.1-.1zm-60.9-5.5c.9-.5 1.8-.6 2.8-.4 1.1.2 1.9.9 2.2 1.9.3 1 .3 2.1 0 3.2-.4 1.3-1.3 1.9-2.5 2-1.2.1-2.4.1-3.6-.2-.2-.1-.3-.2-.3-.4v-8.7c0-.3.1-.4.4-.4.7-.1 1.1.2 1.1.9-.1.7-.1 1.4-.1 2.1zm.1 3.6v1.7c0 .2.1.3.3.3.4 0 .8.1 1.1.1 1.4 0 2.1-.5 2.3-1.9.1-.6-.1-1.3-.2-1.9-.3-.8-1.2-1.1-2.3-.9-.9.2-1.1.5-1.1 1.4-.1.3-.1.7-.1 1.2zm33 4l1.8.3h.2c1.5.2 2.3-.6 2-2.2-.9.7-1.9.6-2.9.4-1-.2-1.5-1-1.5-2.1v-3.6c0-.3 0-.6.3-.6.3-.1.7 0 1 0 0 0 .1.3.1.4v3.4c.1 1.3 1.4 1.9 2.5 1.2.4-.3.5-.7.5-1.2v-2.9c0-.8.6-1.2 1.3-.9.1 0 .1.2.1.2 0 2.2 0 4.5-.1 6.7 0 1.4-.9 2.2-2.2 2.4-1.2.2-2.3 0-3.4-.4-.1 0-.2-.2-.2-.3.3-.3.4-.6.5-.8zm18.5-1h-1.4c0-.2 0-.4-.1-.6-.1 0-.2.1-.2.1-1.6 1.3-3.9.7-4.6-1.3-.4-1.1-.4-2.2 0-3.4.4-1.2 1.3-1.8 2.5-2 1.2-.1 2.3.1 3.3.6.3.2.4.3.4.7v5.3c.2.3.2.4.1.6zm-1.3-3.6s-.1 0 0 0V678c0-.1-.1-.3-.2-.3-.6-.1-1.1-.3-1.7-.4-.8 0-1.4.4-1.5 1.2-.1.6-.1 1.3 0 1.9.1 1.2.8 1.7 2 1.5.4-.1.7-.3 1-.5.3-.2.4-.4.4-.8-.1-.3 0-.7 0-1.1zm-18.6 3.6h-1.3c0-.2 0-.4-.1-.6-.1.1-.2.1-.2.1-1.4 1.2-3.7.8-4.4-.9-.6-1.3-.6-2.6-.1-3.9.4-1.1 1.3-1.6 2.4-1.8 1.2-.1 2.4.1 3.4.7.1.1.3.3.3.5v5.9zm-1.4-3.6V678c0-.1-.1-.3-.2-.3-.6-.2-1.1-.3-1.7-.4-.6 0-1.2.3-1.4.9-.3.9-.3 1.9 0 2.8.2.5.6.9 1.1 1 .7.1 1.4-.1 1.9-.6.1-.1.2-.3.2-.5.1-.5.1-.9.1-1.4zm-18 3.6h-1.3c0-.2-.1-.4-.1-.6h-.1c-.9 1-2 .9-3.1.5s-1.6-1.3-1.7-2.4c-.2-1-.1-2 .3-2.9.5-1 1.3-1.6 2.4-1.7 1.2-.1 2.4.1 3.4.7.1.1.3.3.3.4v5.7c0 .1 0 .2-.1.3zm-1.4-3.6v-.6c0-1.3-.2-1.5-1.5-1.6h-.4c-.8 0-1.4.4-1.5 1.2-.1.7-.1 1.5 0 2.2.1.7.6 1.2 1.3 1.3.6.1 1.2-.1 1.7-.5.2-.2.3-.4.3-.7.1-.4.1-.8.1-1.3zm10.5-1.6c-.5-.5-1.1-.6-1.8-.6s-1.2.4-1.4 1.1c-.2.8-.2 1.6 0 2.4.3 1.2 1.1 1.4 2.2 1.2.4-.1.7-.3 1.1-.5l.7.7c0 .1 0 .3-.1.3-.2.2-.5.4-.8.5-1 .4-2 .4-3 0-.7-.2-1.2-.7-1.5-1.4-.5-1.2-.5-2.5-.1-3.7.4-1.2 1.5-1.9 2.7-1.9.7 0 1.4 0 2 .4.3.2.6.4.6.7 0 .4-.2.6-.6.8z"/><path d="M386 678c-.5-.5-1.1-.7-1.8-.6-.8 0-1.4.4-1.5 1.2-.1.7-.1 1.4 0 2.1.2 1.3 1.1 1.6 2.3 1.4.4-.1.7-.3 1.1-.5.2.2.5.5.7.8 0 .1 0 .3-.1.3-.3.2-.6.4-.9.5-.8.3-1.6.3-2.4.1-1.1-.2-1.8-.8-2.1-1.9-.4-1.2-.4-2.5.1-3.6s1.4-1.6 2.5-1.7c.7 0 1.4 0 2 .4.9.3.9.9.1 1.5zm-19.8 5.1h-1.5v-8.7c0-.9.6-1.3 1.4-.9.1 0 .2.2.2.3v8.6c-.1.3-.1.5-.1.7zm29.5 0h-1.5v-4.5c0-1.6.9-2.5 2.5-2.5.4 0 .8.1 1.3.1-.2.4-.4.7-.6 1-.1.1-.2.1-.3.1-1 0-1.3.3-1.3 1.3v4.1c-.1.1-.1.2-.1.4zm-37-7c-.2.4-.4.7-.6.9-.1.1-.2.2-.3.2-1.1.1-1.4.3-1.4 1.5v4.4h-1.5v-4.6c0-1.5.9-2.4 2.4-2.4.4-.1.9 0 1.4 0z"/></g><path fill="#FFF" d="M336.3 678.4c0 5.2-4.2 9.5-9.5 9.5-2.9 0-5.4-1.3-7.2-3.3 1.1.3 3.4.8 5.9.3 3.6-.7 7.2-4.6 7.7-7s-.3-5.2-1.8-6.6-2.7-1.7-3.4-1.8c-.7-.1-1.6-.1-1.6-.4 0-.2.1-.2.3-.2h.2c5.2.1 9.4 4.3 9.4 9.5z"/><path fill="gray" d="M326.2 684.7c-.2.1-.4.1-.7.2-2.5.5-4.7 0-5.9-.3-.1-.1-.4-.2-.1-.4.3-.2.8-.4 1.4-.4 1-.1 2.7.1 4.1.5.7.1 1 .3 1.2.4zm3-1.5c-.6.4-1.1.8-1.8 1.1-.6-.7-1.6-1.6-3.7-2.7-2.2-1.2-5.3-1.1-6.1-1.1v-.2c1-.6 3-.9 5.4-2.1.5-.3 1-.6 1.4-.9.3.1.6.2.8.4 1.1.7 2.4 2.1 3.3 3.9.4.5.6 1.1.7 1.6zm4.1-5.3c-.3 1.1-1.2 2.6-2.5 3.9-.1-.8-.4-2.8-1.3-4.6-1.2-2.3-3.3-4.2-4.5-4.8s-1.2-.7-1.2-.7c.1 0 .9-.1.9-.5 0-.3-.5-.4-.9-.4s-1.5-.3-.1-.8 4.5.5 7.1 2.7c2.6 2.2 2.7 3.1 2.7 3.1v.1c0 .7-.1 1.4-.2 2z"/><path fill="#FFF" d="M327.3 673.6c-.2.7-1.4 3.1-4.3 4.5-2.4 1.2-4.4 1.5-5.4 2.1-.1-.6-.2-1.1-.2-1.7 0-1.1.2-2.2.6-3.2.5-.3 1.3-.7 2.3-.9 2.3-.4 4.3-.8 5-1.3s.7-.8.6-1.2 0-.9.6-.6 1.1 1.5.8 2.3zm-2.7-2.3c0 .1 0 .1-.1.2-.2.1-.5.2-.8.3-.3.1-.6.1-.9.1 0 0-3.1.1-1.8-.9s3-1.2 4-1c-.6-.1-1.1 0-1.4.1-1.4.5-.3.8.1.8s.9 0 .9.4z"/></g><defs><path id="c" d="M1039.6 603.2v2h2.5c.4-.1.9-.5.9-1s-.4-.9-.9-1h-2.5z"/></defs><clipPath id="d"><use xlink:href="#c" overflow="visible"/></clipPath><linearGradient id="e" gradientUnits="userSpaceOnUse" x1="1198.113" y1="-4335.382" x2="1198.413" y2="-4335.382" gradientTransform="translate(-38697.57 144387.188) scale(33.165)"><stop offset="0" stop-color="#4e4e4e"/><stop offset=".638" stop-color="#787878"/><stop offset="1" stop-color="#8b8b8b"/></linearGradient><path clip-path="url(#d)" fill="url(#e)" d="M1039.6 603.2h3.4v2h-3.4v-2z"/><defs><path id="f" d="M1041.5 590.8c-2.2 0-3.9 1.8-3.9 3.9v4.2h6c1.3.1 2.2.8 2.2 1.9 0 .9-.6 1.7-1.9 1.9 1.3.1 2.3.9 2.3 2 0 1.3-1 2-2.5 2h-6.2v8.1h5.8c2.2 0 3.9-1.8 3.9-3.9v-20.1h-5.7z"/></defs><clipPath id="g"><use xlink:href="#f" overflow="visible"/></clipPath><linearGradient id="h" gradientUnits="userSpaceOnUse" x1="1198.12" y1="-4335.288" x2="1198.419" y2="-4335.288" gradientTransform="translate(-38703.98 144404.344) scale(33.17)"><stop offset="0" stop-color="#4e4e4e"/><stop offset=".638" stop-color="#787878"/><stop offset="1" stop-color="#8b8b8b"/></linearGradient><path clip-path="url(#g)" fill="url(#h)" d="M1037.6 590.8h9.9v24.1h-9.9v-24.1z"/><defs><path id="i" d="M1039.6 600.2v2h2.3c.4-.1.9-.4.9-.9s-.4-.9-.9-.9h-.3l-2-.2z"/></defs><clipPath id="j"><use xlink:href="#i" overflow="visible"/></clipPath><linearGradient id="k" gradientUnits="userSpaceOnUse" x1="1198.11" y1="-4335.247" x2="1198.408" y2="-4335.247" gradientTransform="translate(-38695.586 144370.953) scale(33.163)"><stop offset="0" stop-color="#4e4e4e"/><stop offset=".638" stop-color="#787878"/><stop offset="1" stop-color="#8b8b8b"/></linearGradient><path clip-path="url(#j)" fill="url(#k)" d="M1039.6 600.2h3.2v2h-3.2v-2z"/><defs><path id="l" d="M1019.3 590.8c-2.2 0-3.9 1.8-3.9 3.9v9.9c1.1.5 2.3.9 3.4.9 1.4 0 2.2-.9 2.2-2v-4.6h3.4v4.7c0 1.8-1.1 3.2-5 3.2-2.3 0-4.1-.5-4.1-.5v8.5h5.8c2.2 0 3.9-1.8 3.9-3.9v-20.1h-5.7z"/></defs><clipPath id="m"><use xlink:href="#l" overflow="visible"/></clipPath><linearGradient id="n" gradientUnits="userSpaceOnUse" x1="1199.681" y1="-4335.513" x2="1199.98" y2="-4335.513" gradientTransform="translate(-38707.156 144156) scale(33.11)"><stop offset="0" stop-color="#2d2d2d"/><stop offset=".489" stop-color="#434343"/><stop offset="1" stop-color="#565656"/></linearGradient><path clip-path="url(#m)" fill="url(#n)" d="M1015.3 590.8h9.9v24.1h-9.9v-24.1z"/><defs><path id="o" d="M1030.5 590.8c-2.2 0-3.9 1.8-3.9 3.9v5.2c1-.9 2.8-1.5 5.6-1.3 1.5.1 3.2.5 3.2.5v1.7c-.9-.4-1.8-.9-3-.9-2.2-.3-3.4.9-3.4 2.8s1.4 2.9 3.4 2.8c1.3-.1 2.2-.5 3.1-.9v1.7s-1.7.4-3.2.5c-2.8.1-4.6-.4-5.6-1.3v9.3h5.8c2.2 0 3.9-1.8 3.9-3.9v-20.1h-5.9z"/></defs><clipPath id="p"><use xlink:href="#o" overflow="visible"/></clipPath><linearGradient id="q" gradientUnits="userSpaceOnUse" x1="1198.897" y1="-4335.474" x2="1199.196" y2="-4335.474" gradientTransform="translate(-38672.27 144163.375) scale(33.113)"><stop offset="0" stop-color="#404040"/><stop offset="1" stop-color="#4b4b4b"/></linearGradient><path clip-path="url(#p)" fill="url(#q)" d="M1026.4 590.8h9.9v24.1h-9.9v-24.1z"/><defs><path id="r" d="M1039.5 674.7v2h2.5c.4-.1.9-.5.9-1s-.4-.9-.9-1h-2.5z"/></defs><clipPath id="s"><use xlink:href="#r" overflow="visible"/></clipPath><linearGradient id="t" gradientUnits="userSpaceOnUse" x1="1198.109" y1="-4333.228" x2="1198.41" y2="-4333.228" gradientTransform="translate(-38697.57 144387.188) scale(33.165)"><stop offset="0" stop-color="#4e4e4e"/><stop offset=".234" stop-color="#5f5f5f"/><stop offset=".746" stop-color="#7e7e7e"/><stop offset="1" stop-color="#8b8b8b"/></linearGradient><path clip-path="url(#s)" fill="url(#t)" d="M1039.5 674.7h3.4v2h-3.4v-2z"/><defs><path id="u" d="M1041.5 662.2c-2.2 0-4.1 1.8-4.1 4.1v4.2h6.1c1.3.1 2.2.8 2.2 1.9 0 .9-.6 1.7-1.9 1.9 1.4.1 2.3.9 2.3 2 0 1.3-1.1 2-2.7 2h-6.2v8.3h6c2.2 0 4.1-1.8 4.1-4.1v-20.2l-5.8-.1z"/></defs><clipPath id="v"><use xlink:href="#u" overflow="visible"/></clipPath><linearGradient id="w" gradientUnits="userSpaceOnUse" x1="1198.117" y1="-4333.135" x2="1198.417" y2="-4333.135" gradientTransform="translate(-38703.98 144404.344) scale(33.17)"><stop offset="0" stop-color="#4e4e4e"/><stop offset=".234" stop-color="#5f5f5f"/><stop offset=".746" stop-color="#7e7e7e"/><stop offset="1" stop-color="#8b8b8b"/></linearGradient><path clip-path="url(#v)" fill="url(#w)" d="M1037.4 662.2h9.9v24.1h-9.9v-24.1z"/><defs><path id="x" d="M1039.5 671.6v2h2.3c.4-.1.9-.4.9-.9s-.4-.9-.9-.9h-.3l-2-.2z"/></defs><clipPath id="y"><use xlink:href="#x" overflow="visible"/></clipPath><linearGradient id="z" gradientUnits="userSpaceOnUse" x1="1198.106" y1="-4333.092" x2="1198.408" y2="-4333.092" gradientTransform="translate(-38695.586 144370.953) scale(33.163)"><stop offset="0" stop-color="#4e4e4e"/><stop offset=".234" stop-color="#5f5f5f"/><stop offset=".746" stop-color="#7e7e7e"/><stop offset="1" stop-color="#8b8b8b"/></linearGradient><path clip-path="url(#y)" fill="url(#z)" d="M1039.5 671.6h3.2v2h-3.2v-2z"/><defs><path id="A" d="M1019.3 662.2c-2.2 0-4.1 1.8-4.1 4.1v9.9c1.1.5 2.3.9 3.4.9 1.4 0 2.2-.9 2.2-2v-4.7h3.4v4.7c0 1.9-1.1 3.3-5 3.3-2.3 0-4.2-.5-4.2-.5v8.5h6c2.2 0 4.1-1.8 4.1-4.1v-20.2h-5.8v.1z"/></defs><clipPath id="B"><use xlink:href="#A" overflow="visible"/></clipPath><linearGradient id="C" gradientUnits="userSpaceOnUse" x1="1199.677" y1="-4333.355" x2="1199.976" y2="-4333.355" gradientTransform="translate(-38707.156 144156) scale(33.11)"><stop offset="0" stop-color="#2d2d2d"/><stop offset=".095" stop-color="#323232"/><stop offset=".7" stop-color="#4c4c4c"/><stop offset="1" stop-color="#565656"/></linearGradient><path clip-path="url(#B)" fill="url(#C)" d="M1015.2 662.2h9.9v24.1h-9.9v-24.1z"/><defs><path id="D" d="M1030.5 662.2c-2.2 0-4.1 1.8-4.1 4.1v5.3c1-.9 2.8-1.5 5.6-1.3 1.5.1 3.2.5 3.2.5v1.7c-.9-.4-1.8-.9-3-.9-2.2-.3-3.4.9-3.4 2.8s1.4 2.9 3.4 2.8c1.3-.1 2.3-.5 3-.9v1.7s-1.6.4-3.2.5c-2.8.1-4.6-.4-5.6-1.3v9.3h6c2.2 0 4.1-1.8 4.1-4.1v-20.2h-6z"/></defs><clipPath id="E"><use xlink:href="#D" overflow="visible"/></clipPath><linearGradient id="F" gradientUnits="userSpaceOnUse" x1="1198.893" y1="-4333.316" x2="1199.194" y2="-4333.316" gradientTransform="translate(-38672.27 144163.375) scale(33.113)"><stop offset="0" stop-color="#404040"/><stop offset=".364" stop-color="#444"/><stop offset=".79" stop-color="#494949"/><stop offset="1" stop-color="#4b4b4b"/></linearGradient><path clip-path="url(#E)" fill="url(#F)" d="M1026.3 662.2h9.9v24.1h-9.9v-24.1z"/><path fill="#9A9A9A" d="M1085.2 684.9c5.2 0 10.1-4.3 10.1-9.5 0-5.8-4.9-9.7-10.1-9.7h-4.5c-5.4 0-9.7 4.1-9.7 9.7 0 5.2 4.3 9.5 9.7 9.5h4.5z"/><path fill="#D3D3D3" d="M1082.8 680.4v-10.5c2.2.9 3.6 2.8 3.6 5.2-.1 2.5-1.6 4.6-3.6 5.3m-7.7-5.2c0-2.4 1.5-4.3 3.6-5.2v10.5c-2.1-.8-3.6-2.9-3.6-5.3m5.8-8.8c-4.9 0-9 4.1-9 9s4.1 9 9 9 9-4.1 9-9c-.4-5.1-4.1-9-9-9"/><path fill="#3C3C3C" d="M1085.2 612.8c5.4 0 10.1-4.3 10.1-9.5 0-5.8-4.9-9.7-10.1-9.7h-4.5c-5.4 0-9.7 4.1-9.7 9.7 0 5.2 4.3 9.5 9.7 9.5h4.5z"/><path fill="#FFF" d="M1082.8 608.2v-10.5c2.2.9 3.6 2.8 3.6 5.2-.1 2.5-1.4 4.5-3.6 5.3m-7.7-5.1c0-2.4 1.5-4.3 3.6-5.2v10.5c-2.1-1-3.6-3-3.6-5.3m5.6-9c-4.9 0-9 4.1-9 9s4.1 9 9 9 9-4.1 9-9c0-5-4.1-9-9-9"/><path fill="#004A97" d="M411.2 543.5c5.4 0 10.1-4.3 10.1-9.5 0-5.8-4.9-9.7-10.1-9.7h-4.5c-5.4 0-9.7 4.1-9.7 9.7 0 5.2 4.3 9.5 9.7 9.5h4.5z"/><path fill="#FFF" d="M408.6 539v-10.5c2.2.9 3.6 2.8 3.6 5.2 0 2.3-1.4 4.3-3.6 5.3m-7.5-5.3c0-2.4 1.5-4.3 3.6-5.2V539c-2.3-1-3.6-3-3.6-5.3m5.4-9c-4.9 0-9 4.1-9 9s4.1 9 9 9 9-4.1 9-9c0-4.8-3.9-9-9-9"/><defs><path id="G" d="M345.4 533.2v2h2.5c.4-.1.9-.5.9-1s-.4-.9-.9-1h-2.5z"/></defs><clipPath id="H"><use xlink:href="#G" overflow="visible"/></clipPath><linearGradient id="I" gradientUnits="userSpaceOnUse" x1="1177.183" y1="-4337.493" x2="1177.482" y2="-4337.493" gradientTransform="translate(-38697.57 144387.188) scale(33.165)"><stop offset="0" stop-color="#007940"/><stop offset=".234" stop-color="#18893c"/><stop offset=".746" stop-color="#48a834"/><stop offset="1" stop-color="#5bb431"/></linearGradient><path clip-path="url(#H)" fill="url(#I)" d="M345.4 533.2h3.4v2h-3.4v-2z"/><defs><path id="J" d="M347.5 520.8c-2.2 0-4.1 1.8-4.1 4.1v4.2h6.1c1.3.1 2.2.8 2.2 1.9 0 .9-.6 1.6-1.9 1.9 1.4.1 2.3.9 2.3 2 0 1.3-1.1 2-2.5 2h-6.2v8.3h6c2.2 0 4.1-1.8 4.1-4.1V521l-6-.2z"/></defs><clipPath id="K"><use xlink:href="#J" overflow="visible"/></clipPath><linearGradient id="L" gradientUnits="userSpaceOnUse" x1="1177.194" y1="-4337.401" x2="1177.494" y2="-4337.401" gradientTransform="translate(-38703.98 144404.344) scale(33.17)"><stop offset="0" stop-color="#007940"/><stop offset=".234" stop-color="#18893c"/><stop offset=".746" stop-color="#48a834"/><stop offset="1" stop-color="#5bb431"/></linearGradient><path clip-path="url(#K)" fill="url(#L)" d="M343.5 520.8h9.9v24h-9.9v-24z"/><defs><path id="M" d="M345.4 530v2h2.3c.4-.1.9-.4.9-.9s-.4-.9-.9-.9h-.3l-2-.2z"/></defs><clipPath id="N"><use xlink:href="#M" overflow="visible"/></clipPath><linearGradient id="O" gradientUnits="userSpaceOnUse" x1="1177.18" y1="-4337.361" x2="1177.479" y2="-4337.361" gradientTransform="translate(-38695.586 144370.953) scale(33.163)"><stop offset="0" stop-color="#007940"/><stop offset=".234" stop-color="#18893c"/><stop offset=".746" stop-color="#48a834"/><stop offset="1" stop-color="#5bb431"/></linearGradient><path clip-path="url(#N)" fill="url(#O)" d="M345.4 530h3.2v2h-3.2v-2z"/><defs><path id="P" d="M325.4 520.8c-2.2 0-4.1 1.8-4.1 4.1v9.9c1.1.5 2.3.9 3.4.9 1.4 0 2.2-.9 2.2-2V529h3.4v4.7c0 1.9-1.1 3.3-5 3.3-2.3 0-4.2-.5-4.2-.5v8.4h6c2.2 0 4.1-1.8 4.1-4.1v-20.1h-5.8v.1z"/></defs><clipPath id="Q"><use xlink:href="#P" overflow="visible"/></clipPath><linearGradient id="R" gradientUnits="userSpaceOnUse" x1="1178.72" y1="-4337.629" x2="1179.019" y2="-4337.629" gradientTransform="translate(-38707.156 144156) scale(33.11)"><stop offset="0" stop-color="#1f286f"/><stop offset=".095" stop-color="#1c3077"/><stop offset=".7" stop-color="#085da8"/><stop offset="1" stop-color="#006fbb"/></linearGradient><path clip-path="url(#Q)" fill="url(#R)" d="M321.3 520.8h9.9v24h-9.9v-24z"/><defs><path id="S" d="M336.4 520.8c-2.2 0-4.1 1.8-4.1 4.1v5.3c1-.9 2.8-1.4 5.6-1.3 1.5.1 3.2.5 3.2.5v1.6c-.9-.4-1.8-.9-3.1-.9-2.2-.3-3.4.9-3.4 2.8s1.4 2.9 3.4 2.8c1.3-.1 2.3-.5 3-.9v1.6s-1.6.4-3.2.5c-2.8.1-4.6-.4-5.6-1.3v9.3h6c2.2 0 4.1-1.8 4.1-4.1v-20.1l-5.9.1z"/></defs><clipPath id="T"><use xlink:href="#S" overflow="visible"/></clipPath><linearGradient id="U" gradientUnits="userSpaceOnUse" x1="1177.936" y1="-4337.59" x2="1178.234" y2="-4337.59" gradientTransform="translate(-38672.27 144163.375) scale(33.113)"><stop offset="0" stop-color="#6d2c2f"/><stop offset=".364" stop-color="#9e1a33"/><stop offset=".79" stop-color="#d10737"/><stop offset="1" stop-color="#e50039"/></linearGradient><path clip-path="url(#T)" fill="url(#U)" d="M332.3 520.8h9.9v24h-9.9v-24z"/></svg>